{
	"patcher" : 	{
		"fileversion" : 1,
		"appversion" : 		{
			"major" : 8,
			"minor" : 0,
			"revision" : 0,
			"architecture" : "x64",
			"modernui" : 1
		}
,
		"rect" : [ 62.0, 106.0, 828.0, 600.0 ],
		"bglocked" : 0,
		"openinpresentation" : 1,
		"default_fontsize" : 12.0,
		"default_fontface" : 0,
		"default_fontname" : "Arial",
		"gridonopen" : 1,
		"gridsize" : [ 15.0, 15.0 ],
		"gridsnaponopen" : 1,
		"objectsnaponopen" : 1,
		"statusbarvisible" : 2,
		"toolbarvisible" : 1,
		"lefttoolbarpinned" : 0,
		"toptoolbarpinned" : 0,
		"righttoolbarpinned" : 0,
		"bottomtoolbarpinned" : 0,
		"toolbars_unpinned_last_save" : 0,
		"tallnewobj" : 0,
		"boxanimatetime" : 200,
		"enablehscroll" : 1,
		"enablevscroll" : 1,
		"devicewidth" : 0.0,
		"description" : "",
		"digest" : "",
		"tags" : "",
		"style" : "",
		"subpatcher_template" : "",
		"boxes" : [ 			{
				"box" : 				{
					"comment" : "",
					"id" : "obj-10",
					"index" : 4,
					"maxclass" : "inlet",
					"numinlets" : 0,
					"numoutlets" : 1,
					"outlettype" : [ "" ],
					"patching_rect" : [ 562.75, 84.0, 30.0, 30.0 ],
					"presentation_rect" : [ 562.75, 84.0, 30.0, 30.0 ],
					"style" : ""
				}

			}
, 			{
				"box" : 				{
					"fontname" : "Arial Bold",
					"fontsize" : 10.0,
					"id" : "obj-9",
					"linecount" : 2,
					"maxclass" : "comment",
					"numinlets" : 1,
					"numoutlets" : 0,
					"patching_rect" : [ 158.38092, 399.914917, 72.0, 29.0 ],
					"presentation" : 1,
					"presentation_rect" : [ 2.0, 31.257202, 131.317657, 18.0 ],
					"style" : "",
					"text" : "ENVELOPPE FOLLOWER",
					"textcolor" : [ 1.0, 1.0, 1.0, 1.0 ]
				}

			}
, 			{
				"box" : 				{
					"id" : "obj-6",
					"maxclass" : "comment",
					"numinlets" : 1,
					"numoutlets" : 0,
					"patching_rect" : [ 28.0, -1.0, 150.0, 20.0 ],
					"presentation" : 1,
					"presentation_rect" : [ 2.0, 5.0, 150.0, 20.0 ],
					"style" : "",
					"text" : "L  plugin~  R          gain"
				}

			}
, 			{
				"box" : 				{
					"id" : "obj-1",
					"maxclass" : "newobj",
					"numinlets" : 3,
					"numoutlets" : 1,
					"outlettype" : [ "signal" ],
					"patching_rect" : [ 245.822327, 376.473328, 60.0, 22.0 ],
					"presentation_rect" : [ 245.822327, 376.473328, 60.0, 22.0 ],
					"style" : "",
					"text" : "clip~ 0. 1."
				}

			}
, 			{
				"box" : 				{
					"fontname" : "Arial Bold",
					"fontsize" : 10.0,
					"id" : "obj-7",
					"maxclass" : "newobj",
					"numinlets" : 2,
					"numoutlets" : 0,
					"patcher" : 					{
						"fileversion" : 1,
						"appversion" : 						{
							"major" : 8,
							"minor" : 0,
							"revision" : 0,
							"architecture" : "x64",
							"modernui" : 1
						}
,
						"rect" : [ 40.0, 94.0, 1352.0, 788.0 ],
						"bglocked" : 0,
						"openinpresentation" : 0,
						"default_fontsize" : 10.0,
						"default_fontface" : 0,
						"default_fontname" : "Arial",
						"gridonopen" : 1,
						"gridsize" : [ 15.0, 15.0 ],
						"gridsnaponopen" : 1,
						"objectsnaponopen" : 1,
						"statusbarvisible" : 2,
						"toolbarvisible" : 1,
						"lefttoolbarpinned" : 0,
						"toptoolbarpinned" : 0,
						"righttoolbarpinned" : 0,
						"bottomtoolbarpinned" : 0,
						"toolbars_unpinned_last_save" : 0,
						"tallnewobj" : 0,
						"boxanimatetime" : 200,
						"enablehscroll" : 1,
						"enablevscroll" : 1,
						"devicewidth" : 0.0,
						"description" : "",
						"digest" : "",
						"tags" : "",
						"style" : "",
						"subpatcher_template" : "",
						"boxes" : [ 							{
								"box" : 								{
									"fontname" : "Arial Bold",
									"fontsize" : 9.0,
									"id" : "obj-16",
									"maxclass" : "newobj",
									"numinlets" : 1,
									"numoutlets" : 2,
									"outlettype" : [ "jit_matrix", "" ],
									"patching_rect" : [ 634.0, 270.0, 637.0, 19.0 ],
									"presentation_rect" : [ 634.0, 270.0, 637.0, 19.0 ],
									"style" : "",
									"text" : "jit.gl.graph ---display @circpoints 1 @position 0 -0.75 0 @antialias 1 @color 0.54902 0.54902 0.54902 0.5 @scale 2.55 1.53 1 @line_width 2 @layer 2"
								}

							}
, 							{
								"box" : 								{
									"comment" : "",
									"id" : "obj-5",
									"index" : 2,
									"maxclass" : "inlet",
									"numinlets" : 0,
									"numoutlets" : 1,
									"outlettype" : [ "signal" ],
									"patching_rect" : [ 629.5, 108.0, 19.0, 19.0 ],
									"presentation_rect" : [ 629.5, 108.0, 19.0, 19.0 ],
									"style" : ""
								}

							}
, 							{
								"box" : 								{
									"fontname" : "Arial Bold",
									"fontsize" : 9.0,
									"id" : "obj-3",
									"maxclass" : "newobj",
									"numinlets" : 1,
									"numoutlets" : 2,
									"outlettype" : [ "jit_matrix", "" ],
									"patching_rect" : [ 634.0, 234.0, 255.0, 19.0 ],
									"presentation_rect" : [ 634.0, 234.0, 255.0, 19.0 ],
									"style" : "",
									"text" : "jit.catch~ 1 @mode 2 @downsample 50 @framesize 2722"
								}

							}
, 							{
								"box" : 								{
									"id" : "obj-18",
									"maxclass" : "newobj",
									"numinlets" : 2,
									"numoutlets" : 2,
									"outlettype" : [ "", "" ],
									"patching_rect" : [ 505.0, 535.0, 136.0, 20.0 ],
									"presentation_rect" : [ 505.0, 535.0, 136.0, 20.0 ],
									"style" : "",
									"text" : "route lcd_control_fg_zombie"
								}

							}
, 							{
								"box" : 								{
									"id" : "obj-19",
									"maxclass" : "message",
									"numinlets" : 2,
									"numoutlets" : 1,
									"outlettype" : [ "" ],
									"patching_rect" : [ 505.0, 447.0, 111.0, 20.0 ],
									"presentation_rect" : [ 505.0, 447.0, 111.0, 20.0 ],
									"style" : "",
									"text" : "lcd_control_fg_zombie"
								}

							}
, 							{
								"box" : 								{
									"id" : "obj-17",
									"maxclass" : "newobj",
									"numinlets" : 1,
									"numoutlets" : 1,
									"outlettype" : [ "" ],
									"patching_rect" : [ 425.5, 566.0, 72.0, 20.0 ],
									"presentation_rect" : [ 425.5, 566.0, 72.0, 20.0 ],
									"style" : "",
									"text" : "prepend color"
								}

							}
, 							{
								"box" : 								{
									"id" : "obj-13",
									"maxclass" : "newobj",
									"numinlets" : 2,
									"numoutlets" : 2,
									"outlettype" : [ "", "" ],
									"patching_rect" : [ 385.0, 535.0, 98.0, 20.0 ],
									"presentation_rect" : [ 385.0, 535.0, 98.0, 20.0 ],
									"style" : "",
									"text" : "route lcd_control_fg"
								}

							}
, 							{
								"box" : 								{
									"id" : "obj-10",
									"maxclass" : "message",
									"numinlets" : 2,
									"numoutlets" : 1,
									"outlettype" : [ "" ],
									"patching_rect" : [ 385.0, 447.0, 74.0, 20.0 ],
									"presentation_rect" : [ 385.0, 447.0, 74.0, 20.0 ],
									"style" : "",
									"text" : "lcd_control_fg"
								}

							}
, 							{
								"box" : 								{
									"id" : "obj-15",
									"maxclass" : "newobj",
									"numinlets" : 2,
									"numoutlets" : 2,
									"outlettype" : [ "", "" ],
									"patching_rect" : [ 309.0, 535.0, 66.0, 20.0 ],
									"presentation_rect" : [ 309.0, 535.0, 66.0, 20.0 ],
									"style" : "",
									"text" : "route lcd_bg"
								}

							}
, 							{
								"box" : 								{
									"id" : "obj-4",
									"maxclass" : "newobj",
									"numinlets" : 1,
									"numoutlets" : 1,
									"outlettype" : [ "" ],
									"patching_rect" : [ 309.0, 566.0, 102.0, 20.0 ],
									"presentation_rect" : [ 309.0, 566.0, 102.0, 20.0 ],
									"style" : "",
									"text" : "prepend erase_color"
								}

							}
, 							{
								"box" : 								{
									"id" : "obj-8",
									"maxclass" : "message",
									"numinlets" : 2,
									"numoutlets" : 1,
									"outlettype" : [ "" ],
									"patching_rect" : [ 309.0, 447.0, 40.0, 20.0 ],
									"presentation_rect" : [ 309.0, 447.0, 40.0, 20.0 ],
									"style" : "",
									"text" : "lcd_bg"
								}

							}
, 							{
								"box" : 								{
									"id" : "obj-1",
									"maxclass" : "newobj",
									"numinlets" : 1,
									"numoutlets" : 2,
									"outlettype" : [ "", "bang" ],
									"patching_rect" : [ 309.0, 484.0, 55.0, 20.0 ],
									"presentation_rect" : [ 309.0, 484.0, 55.0, 20.0 ],
									"style" : "",
									"text" : "live.colors"
								}

							}
, 							{
								"box" : 								{
									"id" : "obj-6",
									"maxclass" : "newobj",
									"numinlets" : 1,
									"numoutlets" : 1,
									"outlettype" : [ "" ],
									"patching_rect" : [ 506.0, 65.0, 33.0, 20.0 ],
									"presentation_rect" : [ 506.0, 65.0, 33.0, 20.0 ],
									"style" : "",
									"text" : "defer"
								}

							}
, 							{
								"box" : 								{
									"id" : "obj-14",
									"maxclass" : "newobj",
									"numinlets" : 1,
									"numoutlets" : 2,
									"outlettype" : [ "bang", "bang" ],
									"patching_rect" : [ 506.0, 124.0, 30.0, 20.0 ],
									"presentation_rect" : [ 506.0, 124.0, 30.0, 20.0 ],
									"style" : "",
									"text" : "t b b"
								}

							}
, 							{
								"box" : 								{
									"id" : "obj-9",
									"maxclass" : "newobj",
									"numinlets" : 1,
									"numoutlets" : 2,
									"outlettype" : [ "bang", "bang" ],
									"patching_rect" : [ 545.5, 124.0, 30.0, 20.0 ],
									"presentation_rect" : [ 545.5, 124.0, 30.0, 20.0 ],
									"style" : "",
									"text" : "t b b"
								}

							}
, 							{
								"box" : 								{
									"id" : "obj-11",
									"maxclass" : "newobj",
									"numinlets" : 3,
									"numoutlets" : 3,
									"outlettype" : [ "bang", "bang", "" ],
									"patching_rect" : [ 506.0, 94.0, 40.0, 20.0 ],
									"presentation_rect" : [ 506.0, 94.0, 40.0, 20.0 ],
									"style" : "",
									"text" : "sel 0 1"
								}

							}
, 							{
								"box" : 								{
									"id" : "obj-7",
									"maxclass" : "newobj",
									"numinlets" : 1,
									"numoutlets" : 3,
									"outlettype" : [ "bang", "int", "int" ],
									"patching_rect" : [ 431.0, 19.0, 73.0, 20.0 ],
									"presentation_rect" : [ 431.0, 19.0, 73.0, 20.0 ],
									"style" : "",
									"text" : "live.thisdevice"
								}

							}
, 							{
								"box" : 								{
									"id" : "obj-12",
									"maxclass" : "message",
									"numinlets" : 2,
									"numoutlets" : 1,
									"outlettype" : [ "" ],
									"patching_rect" : [ 431.0, 65.0, 61.0, 20.0 ],
									"presentation_rect" : [ 431.0, 65.0, 61.0, 20.0 ],
									"style" : "",
									"text" : "high_res 1"
								}

							}
, 							{
								"box" : 								{
									"fontname" : "Arial",
									"fontsize" : 10.0,
									"id" : "obj-2",
									"maxclass" : "comment",
									"numinlets" : 1,
									"numoutlets" : 0,
									"patching_rect" : [ 198.5, 133.0, 158.0, 18.0 ],
									"presentation_rect" : [ 198.5, 133.0, 158.0, 18.0 ],
									"style" : "",
									"text" : "<<< careful, it crashes when zero"
								}

							}
, 							{
								"box" : 								{
									"fontname" : "Arial Bold",
									"fontsize" : 9.0,
									"id" : "obj-100",
									"maxclass" : "newobj",
									"numinlets" : 1,
									"numoutlets" : 2,
									"outlettype" : [ "bang", "" ],
									"patching_rect" : [ 185.0, 268.0, 185.0, 19.0 ],
									"presentation_rect" : [ 185.0, 268.0, 185.0, 19.0 ],
									"style" : "",
									"text" : "jit.gl.render ---display @drawto ---display"
								}

							}
, 							{
								"box" : 								{
									"fontname" : "Arial Bold",
									"fontsize" : 9.0,
									"id" : "obj-101",
									"maxclass" : "newobj",
									"numinlets" : 1,
									"numoutlets" : 3,
									"outlettype" : [ "bang", "bang", "erase" ],
									"patching_rect" : [ 124.0, 161.5, 56.0, 19.0 ],
									"presentation_rect" : [ 124.0, 161.5, 56.0, 19.0 ],
									"style" : "",
									"text" : "t b b erase"
								}

							}
, 							{
								"box" : 								{
									"fontname" : "Arial Bold",
									"fontsize" : 9.0,
									"id" : "obj-91",
									"maxclass" : "newobj",
									"numinlets" : 1,
									"numoutlets" : 2,
									"outlettype" : [ "jit_matrix", "" ],
									"patching_rect" : [ 124.0, 364.5, 582.0, 19.0 ],
									"presentation_rect" : [ 124.0, 364.5, 582.0, 19.0 ],
									"style" : "",
									"text" : "jit.gl.graph ---display @circpoints 1 @position 0 -0.75 0 @antialias 1 @color 1. 0.71 0.196 1. @scale 2.55 1.53 1 @line_width 2 @layer 1"
								}

							}
, 							{
								"box" : 								{
									"fontname" : "Arial Bold",
									"fontsize" : 9.0,
									"id" : "obj-66",
									"maxclass" : "newobj",
									"numinlets" : 2,
									"numoutlets" : 1,
									"outlettype" : [ "bang" ],
									"patching_rect" : [ 105.0, 108.0, 110.0, 19.0 ],
									"presentation_rect" : [ 105.0, 108.0, 110.0, 19.0 ],
									"style" : "",
									"text" : "qmetro 33.33 @active 1"
								}

							}
, 							{
								"box" : 								{
									"fontname" : "Arial Bold",
									"fontsize" : 9.0,
									"id" : "obj-64",
									"maxclass" : "newobj",
									"numinlets" : 1,
									"numoutlets" : 2,
									"outlettype" : [ "jit_matrix", "" ],
									"patching_rect" : [ 124.0, 304.0, 254.0, 19.0 ],
									"presentation_rect" : [ 124.0, 304.0, 254.0, 19.0 ],
									"style" : "",
									"text" : "jit.catch~ 1 @mode 2 @downsample 50 @framesize 2722"
								}

							}
, 							{
								"box" : 								{
									"comment" : "",
									"id" : "obj-88",
									"index" : 1,
									"maxclass" : "inlet",
									"numinlets" : 0,
									"numoutlets" : 1,
									"outlettype" : [ "signal" ],
									"patching_rect" : [ 37.5, 150.0, 19.0, 19.0 ],
									"presentation_rect" : [ 37.5, 150.0, 19.0, 19.0 ],
									"style" : ""
								}

							}
 ],
						"lines" : [ 							{
								"patchline" : 								{
									"destination" : [ "obj-10", 0 ],
									"midpoints" : [ 354.5, 514.0, 474.5, 514.0, 474.5, 436.0, 394.5, 436.0 ],
									"order" : 1,
									"source" : [ "obj-1", 1 ]
								}

							}
, 							{
								"patchline" : 								{
									"destination" : [ "obj-13", 0 ],
									"order" : 1,
									"source" : [ "obj-1", 0 ]
								}

							}
, 							{
								"patchline" : 								{
									"destination" : [ "obj-15", 0 ],
									"order" : 2,
									"source" : [ "obj-1", 0 ]
								}

							}
, 							{
								"patchline" : 								{
									"destination" : [ "obj-18", 0 ],
									"order" : 0,
									"source" : [ "obj-1", 0 ]
								}

							}
, 							{
								"patchline" : 								{
									"destination" : [ "obj-19", 0 ],
									"midpoints" : [ 354.5, 514.0, 491.5, 514.0, 491.5, 436.0, 514.5, 436.0 ],
									"order" : 0,
									"source" : [ "obj-1", 1 ]
								}

							}
, 							{
								"patchline" : 								{
									"destination" : [ "obj-8", 0 ],
									"midpoints" : [ 354.5, 507.0, 375.0, 507.0, 375.0, 432.0, 318.5, 432.0 ],
									"order" : 2,
									"source" : [ "obj-1", 1 ]
								}

							}
, 							{
								"patchline" : 								{
									"destination" : [ "obj-1", 0 ],
									"source" : [ "obj-10", 0 ]
								}

							}
, 							{
								"patchline" : 								{
									"destination" : [ "obj-100", 0 ],
									"source" : [ "obj-101", 2 ]
								}

							}
, 							{
								"patchline" : 								{
									"destination" : [ "obj-100", 0 ],
									"order" : 1,
									"source" : [ "obj-101", 0 ]
								}

							}
, 							{
								"patchline" : 								{
									"destination" : [ "obj-3", 0 ],
									"order" : 0,
									"source" : [ "obj-101", 1 ]
								}

							}
, 							{
								"patchline" : 								{
									"destination" : [ "obj-3", 0 ],
									"order" : 0,
									"source" : [ "obj-101", 0 ]
								}

							}
, 							{
								"patchline" : 								{
									"destination" : [ "obj-64", 0 ],
									"order" : 1,
									"source" : [ "obj-101", 1 ]
								}

							}
, 							{
								"patchline" : 								{
									"destination" : [ "obj-14", 0 ],
									"source" : [ "obj-11", 0 ]
								}

							}
, 							{
								"patchline" : 								{
									"destination" : [ "obj-9", 0 ],
									"source" : [ "obj-11", 1 ]
								}

							}
, 							{
								"patchline" : 								{
									"destination" : [ "obj-100", 0 ],
									"source" : [ "obj-12", 0 ]
								}

							}
, 							{
								"patchline" : 								{
									"destination" : [ "obj-17", 0 ],
									"source" : [ "obj-13", 0 ]
								}

							}
, 							{
								"patchline" : 								{
									"destination" : [ "obj-101", 0 ],
									"midpoints" : [ 515.5, 149.75, 133.5, 149.75 ],
									"source" : [ "obj-14", 0 ]
								}

							}
, 							{
								"patchline" : 								{
									"destination" : [ "obj-19", 0 ],
									"midpoints" : [ 526.5, 342.0, 526.0, 342.0, 526.0, 432.0, 514.5, 432.0 ],
									"source" : [ "obj-14", 1 ]
								}

							}
, 							{
								"patchline" : 								{
									"destination" : [ "obj-4", 0 ],
									"source" : [ "obj-15", 0 ]
								}

							}
, 							{
								"patchline" : 								{
									"destination" : [ "obj-91", 0 ],
									"source" : [ "obj-17", 0 ]
								}

							}
, 							{
								"patchline" : 								{
									"destination" : [ "obj-17", 0 ],
									"source" : [ "obj-18", 0 ]
								}

							}
, 							{
								"patchline" : 								{
									"destination" : [ "obj-1", 0 ],
									"source" : [ "obj-19", 0 ]
								}

							}
, 							{
								"patchline" : 								{
									"destination" : [ "obj-16", 0 ],
									"source" : [ "obj-3", 0 ]
								}

							}
, 							{
								"patchline" : 								{
									"destination" : [ "obj-100", 0 ],
									"source" : [ "obj-4", 0 ]
								}

							}
, 							{
								"patchline" : 								{
									"destination" : [ "obj-3", 0 ],
									"source" : [ "obj-5", 0 ]
								}

							}
, 							{
								"patchline" : 								{
									"destination" : [ "obj-11", 0 ],
									"source" : [ "obj-6", 0 ]
								}

							}
, 							{
								"patchline" : 								{
									"destination" : [ "obj-91", 0 ],
									"source" : [ "obj-64", 0 ]
								}

							}
, 							{
								"patchline" : 								{
									"destination" : [ "obj-101", 0 ],
									"source" : [ "obj-66", 0 ]
								}

							}
, 							{
								"patchline" : 								{
									"destination" : [ "obj-12", 0 ],
									"order" : 0,
									"source" : [ "obj-7", 0 ]
								}

							}
, 							{
								"patchline" : 								{
									"destination" : [ "obj-6", 0 ],
									"source" : [ "obj-7", 1 ]
								}

							}
, 							{
								"patchline" : 								{
									"destination" : [ "obj-8", 0 ],
									"order" : 1,
									"source" : [ "obj-7", 0 ]
								}

							}
, 							{
								"patchline" : 								{
									"destination" : [ "obj-1", 0 ],
									"source" : [ "obj-8", 0 ]
								}

							}
, 							{
								"patchline" : 								{
									"destination" : [ "obj-64", 0 ],
									"source" : [ "obj-88", 0 ]
								}

							}
, 							{
								"patchline" : 								{
									"destination" : [ "obj-10", 0 ],
									"midpoints" : [ 566.0, 160.0, 420.0, 160.0, 420.0, 432.0, 394.5, 432.0 ],
									"source" : [ "obj-9", 1 ]
								}

							}
, 							{
								"patchline" : 								{
									"destination" : [ "obj-101", 0 ],
									"midpoints" : [ 555.0, 149.75, 133.5, 149.75 ],
									"source" : [ "obj-9", 0 ]
								}

							}
 ]
					}
,
					"patching_rect" : [ 245.822327, 414.0, 89.86908, 20.0 ],
					"presentation_rect" : [ 245.822327, 414.0, 89.86908, 20.0 ],
					"saved_object_attributes" : 					{
						"description" : "",
						"digest" : "",
						"fontsize" : 10.0,
						"globalpatchername" : "",
						"style" : "",
						"tags" : ""
					}
,
					"style" : "",
					"text" : "p oscilloscope"
				}

			}
, 			{
				"box" : 				{
					"id" : "obj-36",
					"maxclass" : "newobj",
					"numinlets" : 3,
					"numoutlets" : 1,
					"outlettype" : [ "" ],
					"patching_rect" : [ 551.38092, 392.900818, 54.0, 22.0 ],
					"presentation_rect" : [ 551.38092, 392.900818, 54.0, 22.0 ],
					"style" : "",
					"text" : "clip 0. 1."
				}

			}
, 			{
				"box" : 				{
					"fontname" : "Arial Bold",
					"fontsize" : 10.0,
					"id" : "obj-8",
					"maxclass" : "newobj",
					"numinlets" : 1,
					"numoutlets" : 1,
					"outlettype" : [ "" ],
					"patching_rect" : [ 607.38092, 299.42749, 71.0, 20.0 ],
					"presentation_rect" : [ 607.38092, 299.42749, 71.0, 20.0 ],
					"style" : "",
					"text" : "loadmess 20"
				}

			}
, 			{
				"box" : 				{
					"fontname" : "Arial Bold",
					"fontsize" : 10.0,
					"id" : "obj-116",
					"maxclass" : "comment",
					"numinlets" : 1,
					"numoutlets" : 0,
					"patching_rect" : [ 607.38092, 322.914917, 71.0, 18.0 ],
					"presentation" : 1,
					"presentation_rect" : [ 10.31765, 53.257202, 63.0, 18.0 ],
					"style" : "",
					"text" : "refresh ms",
					"textcolor" : [ 1.0, 1.0, 1.0, 1.0 ]
				}

			}
, 			{
				"box" : 				{
					"fontname" : "Arial Bold",
					"fontsize" : 10.0,
					"id" : "obj-31",
					"maxclass" : "number",
					"maximum" : 100,
					"minimum" : 0,
					"numinlets" : 1,
					"numoutlets" : 2,
					"outlettype" : [ "", "bang" ],
					"parameter_enable" : 1,
					"patching_rect" : [ 607.38092, 342.914917, 50.0, 20.0 ],
					"presentation" : 1,
					"presentation_rect" : [ 77.38092, 53.257202, 32.0, 20.0 ],
					"saved_attribute_attributes" : 					{
						"valueof" : 						{
							"parameter_shortname" : "number",
							"parameter_type" : 3,
							"parameter_longname" : "number[1]",
							"parameter_invisible" : 2
						}

					}
,
					"style" : "",
					"varname" : "number"
				}

			}
, 			{
				"box" : 				{
					"fontname" : "Arial Bold",
					"fontsize" : 10.0,
					"id" : "obj-46",
					"maxclass" : "newobj",
					"numinlets" : 2,
					"numoutlets" : 1,
					"outlettype" : [ "float" ],
					"patching_rect" : [ 551.38092, 370.900818, 75.0, 20.0 ],
					"presentation_rect" : [ 551.38092, 370.900818, 75.0, 20.0 ],
					"style" : "",
					"text" : "snapshot~ 20"
				}

			}
, 			{
				"box" : 				{
					"id" : "obj-76",
					"maxclass" : "newobj",
					"numinlets" : 2,
					"numoutlets" : 1,
					"outlettype" : [ "int" ],
					"patching_rect" : [ 298.25, 269.487427, 29.5, 22.0 ],
					"presentation_rect" : [ 298.25, 269.487427, 29.5, 22.0 ],
					"style" : "",
					"text" : "=="
				}

			}
, 			{
				"box" : 				{
					"id" : "obj-77",
					"maxclass" : "newobj",
					"numinlets" : 2,
					"numoutlets" : 1,
					"outlettype" : [ "int" ],
					"patching_rect" : [ 412.25, 244.487427, 29.5, 22.0 ],
					"presentation_rect" : [ 412.25, 244.487427, 29.5, 22.0 ],
					"style" : "",
					"text" : "i"
				}

			}
, 			{
				"box" : 				{
					"id" : "obj-81",
					"maxclass" : "newobj",
					"numinlets" : 2,
					"numoutlets" : 1,
					"outlettype" : [ "float" ],
					"patching_rect" : [ 335.25, 227.487427, 29.5, 22.0 ],
					"presentation_rect" : [ 335.25, 227.487427, 29.5, 22.0 ],
					"style" : "",
					"text" : "f"
				}

			}
, 			{
				"box" : 				{
					"id" : "obj-85",
					"maxclass" : "newobj",
					"numinlets" : 2,
					"numoutlets" : 1,
					"outlettype" : [ "" ],
					"patching_rect" : [ 400.392212, 300.791016, 33.0, 22.0 ],
					"presentation_rect" : [ 400.392212, 300.791016, 33.0, 22.0 ],
					"style" : "",
					"text" : "gate"
				}

			}
, 			{
				"box" : 				{
					"id" : "obj-86",
					"maxclass" : "newobj",
					"numinlets" : 2,
					"numoutlets" : 1,
					"outlettype" : [ "" ],
					"patching_rect" : [ 298.25, 300.791016, 33.0, 22.0 ],
					"presentation_rect" : [ 298.25, 300.791016, 33.0, 22.0 ],
					"style" : "",
					"text" : "gate"
				}

			}
, 			{
				"box" : 				{
					"fontname" : "Arial Bold",
					"fontsize" : 10.0,
					"id" : "obj-48",
					"maxclass" : "newobj",
					"numinlets" : 1,
					"numoutlets" : 1,
					"outlettype" : [ "int" ],
					"patcher" : 					{
						"fileversion" : 1,
						"appversion" : 						{
							"major" : 8,
							"minor" : 0,
							"revision" : 0,
							"architecture" : "x64",
							"modernui" : 1
						}
,
						"rect" : [ 34.0, 79.0, 1075.0, 713.0 ],
						"bglocked" : 0,
						"openinpresentation" : 0,
						"default_fontsize" : 10.0,
						"default_fontface" : 0,
						"default_fontname" : "Arial Bold",
						"gridonopen" : 1,
						"gridsize" : [ 8.0, 8.0 ],
						"gridsnaponopen" : 1,
						"objectsnaponopen" : 1,
						"statusbarvisible" : 2,
						"toolbarvisible" : 1,
						"lefttoolbarpinned" : 0,
						"toptoolbarpinned" : 0,
						"righttoolbarpinned" : 0,
						"bottomtoolbarpinned" : 0,
						"toolbars_unpinned_last_save" : 0,
						"tallnewobj" : 0,
						"boxanimatetime" : 200,
						"enablehscroll" : 1,
						"enablevscroll" : 1,
						"devicewidth" : 0.0,
						"description" : "",
						"digest" : "",
						"tags" : "",
						"style" : "",
						"subpatcher_template" : "",
						"boxes" : [ 							{
								"box" : 								{
									"fontname" : "Arial Bold",
									"fontsize" : 10.0,
									"id" : "obj-4",
									"maxclass" : "newobj",
									"numinlets" : 2,
									"numoutlets" : 1,
									"outlettype" : [ "int" ],
									"patching_rect" : [ 48.0, 224.0, 32.5, 20.0 ],
									"presentation_rect" : [ 48.0, 224.0, 32.5, 20.0 ],
									"style" : "",
									"text" : "int"
								}

							}
, 							{
								"box" : 								{
									"fontname" : "Arial Bold",
									"fontsize" : 10.0,
									"id" : "obj-3",
									"maxclass" : "newobj",
									"numinlets" : 2,
									"numoutlets" : 1,
									"outlettype" : [ "float" ],
									"patching_rect" : [ 48.0, 200.0, 33.0, 20.0 ],
									"presentation_rect" : [ 48.0, 200.0, 33.0, 20.0 ],
									"style" : "",
									"text" : "+ 0.5"
								}

							}
, 							{
								"box" : 								{
									"fontname" : "Arial Bold",
									"fontsize" : 10.0,
									"id" : "obj-1",
									"maxclass" : "message",
									"numinlets" : 2,
									"numoutlets" : 1,
									"outlettype" : [ "" ],
									"patching_rect" : [ 48.0, 120.0, 32.5, 20.0 ],
									"presentation_rect" : [ 48.0, 120.0, 32.5, 20.0 ],
									"style" : "",
									"text" : "0"
								}

							}
, 							{
								"box" : 								{
									"fontname" : "Arial Bold",
									"fontsize" : 10.0,
									"id" : "obj-93",
									"maxclass" : "message",
									"numinlets" : 2,
									"numoutlets" : 1,
									"outlettype" : [ "" ],
									"patching_rect" : [ 288.0, 120.0, 33.0, 20.0 ],
									"presentation_rect" : [ 288.0, 120.0, 33.0, 20.0 ],
									"style" : "",
									"text" : "1920"
								}

							}
, 							{
								"box" : 								{
									"fontname" : "Arial Bold",
									"fontsize" : 10.0,
									"id" : "obj-92",
									"maxclass" : "message",
									"numinlets" : 2,
									"numoutlets" : 1,
									"outlettype" : [ "" ],
									"patching_rect" : [ 248.0, 120.0, 32.5, 20.0 ],
									"presentation_rect" : [ 248.0, 120.0, 32.5, 20.0 ],
									"style" : "",
									"text" : "960"
								}

							}
, 							{
								"box" : 								{
									"fontname" : "Arial Bold",
									"fontsize" : 10.0,
									"id" : "obj-91",
									"maxclass" : "message",
									"numinlets" : 2,
									"numoutlets" : 1,
									"outlettype" : [ "" ],
									"patching_rect" : [ 208.0, 120.0, 32.5, 20.0 ],
									"presentation_rect" : [ 208.0, 120.0, 32.5, 20.0 ],
									"style" : "",
									"text" : "480"
								}

							}
, 							{
								"box" : 								{
									"fontname" : "Arial Bold",
									"fontsize" : 10.0,
									"id" : "obj-90",
									"maxclass" : "message",
									"numinlets" : 2,
									"numoutlets" : 1,
									"outlettype" : [ "" ],
									"patching_rect" : [ 168.0, 120.0, 32.5, 20.0 ],
									"presentation_rect" : [ 168.0, 120.0, 32.5, 20.0 ],
									"style" : "",
									"text" : "240"
								}

							}
, 							{
								"box" : 								{
									"fontname" : "Arial Bold",
									"fontsize" : 10.0,
									"id" : "obj-89",
									"maxclass" : "message",
									"numinlets" : 2,
									"numoutlets" : 1,
									"outlettype" : [ "" ],
									"patching_rect" : [ 128.0, 120.0, 32.5, 20.0 ],
									"presentation_rect" : [ 128.0, 120.0, 32.5, 20.0 ],
									"style" : "",
									"text" : "120"
								}

							}
, 							{
								"box" : 								{
									"fontname" : "Arial Bold",
									"fontsize" : 10.0,
									"id" : "obj-87",
									"maxclass" : "message",
									"numinlets" : 2,
									"numoutlets" : 1,
									"outlettype" : [ "" ],
									"patching_rect" : [ 88.0, 120.0, 30.5, 20.0 ],
									"presentation_rect" : [ 88.0, 120.0, 30.5, 20.0 ],
									"style" : "",
									"text" : "60"
								}

							}
, 							{
								"box" : 								{
									"fontname" : "Arial Bold",
									"fontsize" : 10.0,
									"id" : "obj-75",
									"maxclass" : "newobj",
									"numinlets" : 8,
									"numoutlets" : 8,
									"outlettype" : [ "", "", "", "", "", "", "", "" ],
									"patching_rect" : [ 48.0, 88.0, 299.5, 20.0 ],
									"presentation_rect" : [ 48.0, 88.0, 299.5, 20.0 ],
									"style" : "",
									"text" : "route 0 1 2 3 4 5 6"
								}

							}
, 							{
								"box" : 								{
									"fontface" : 1,
									"fontname" : "Arial",
									"fontsize" : 10.0,
									"id" : "obj-49",
									"maxclass" : "newobj",
									"numinlets" : 1,
									"numoutlets" : 1,
									"outlettype" : [ "" ],
									"patching_rect" : [ 48.0, 168.0, 121.0, 20.0 ],
									"presentation_rect" : [ 48.0, 168.0, 121.0, 20.0 ],
									"style" : "",
									"text" : "translate ticks samples"
								}

							}
, 							{
								"box" : 								{
									"comment" : "",
									"id" : "obj-97",
									"index" : 1,
									"maxclass" : "inlet",
									"numinlets" : 0,
									"numoutlets" : 1,
									"outlettype" : [ "int" ],
									"patching_rect" : [ 48.0, 28.0, 18.0, 18.0 ],
									"presentation_rect" : [ 48.0, 28.0, 18.0, 18.0 ],
									"style" : ""
								}

							}
, 							{
								"box" : 								{
									"comment" : "",
									"id" : "obj-99",
									"index" : 1,
									"maxclass" : "outlet",
									"numinlets" : 1,
									"numoutlets" : 0,
									"patching_rect" : [ 48.0, 256.0, 18.0, 18.0 ],
									"presentation_rect" : [ 48.0, 256.0, 18.0, 18.0 ],
									"style" : ""
								}

							}
 ],
						"lines" : [ 							{
								"patchline" : 								{
									"destination" : [ "obj-49", 0 ],
									"source" : [ "obj-1", 0 ]
								}

							}
, 							{
								"patchline" : 								{
									"destination" : [ "obj-4", 0 ],
									"source" : [ "obj-3", 0 ]
								}

							}
, 							{
								"patchline" : 								{
									"destination" : [ "obj-99", 0 ],
									"source" : [ "obj-4", 0 ]
								}

							}
, 							{
								"patchline" : 								{
									"destination" : [ "obj-3", 0 ],
									"source" : [ "obj-49", 0 ]
								}

							}
, 							{
								"patchline" : 								{
									"destination" : [ "obj-1", 0 ],
									"source" : [ "obj-75", 0 ]
								}

							}
, 							{
								"patchline" : 								{
									"destination" : [ "obj-87", 0 ],
									"source" : [ "obj-75", 1 ]
								}

							}
, 							{
								"patchline" : 								{
									"destination" : [ "obj-89", 0 ],
									"source" : [ "obj-75", 2 ]
								}

							}
, 							{
								"patchline" : 								{
									"destination" : [ "obj-90", 0 ],
									"source" : [ "obj-75", 3 ]
								}

							}
, 							{
								"patchline" : 								{
									"destination" : [ "obj-91", 0 ],
									"source" : [ "obj-75", 4 ]
								}

							}
, 							{
								"patchline" : 								{
									"destination" : [ "obj-92", 0 ],
									"source" : [ "obj-75", 5 ]
								}

							}
, 							{
								"patchline" : 								{
									"destination" : [ "obj-93", 0 ],
									"source" : [ "obj-75", 6 ]
								}

							}
, 							{
								"patchline" : 								{
									"destination" : [ "obj-49", 0 ],
									"source" : [ "obj-87", 0 ]
								}

							}
, 							{
								"patchline" : 								{
									"destination" : [ "obj-49", 0 ],
									"source" : [ "obj-89", 0 ]
								}

							}
, 							{
								"patchline" : 								{
									"destination" : [ "obj-49", 0 ],
									"source" : [ "obj-90", 0 ]
								}

							}
, 							{
								"patchline" : 								{
									"destination" : [ "obj-49", 0 ],
									"source" : [ "obj-91", 0 ]
								}

							}
, 							{
								"patchline" : 								{
									"destination" : [ "obj-49", 0 ],
									"source" : [ "obj-92", 0 ]
								}

							}
, 							{
								"patchline" : 								{
									"destination" : [ "obj-49", 0 ],
									"source" : [ "obj-93", 0 ]
								}

							}
, 							{
								"patchline" : 								{
									"destination" : [ "obj-75", 0 ],
									"source" : [ "obj-97", 0 ]
								}

							}
 ]
					}
,
					"patching_rect" : [ 412.25, 273.487427, 57.0, 20.0 ],
					"presentation_rect" : [ 412.25, 273.487427, 57.0, 20.0 ],
					"saved_object_attributes" : 					{
						"description" : "",
						"digest" : "",
						"fontname" : "Arial Bold",
						"fontsize" : 10.0,
						"globalpatchername" : "",
						"style" : "",
						"tags" : ""
					}
,
					"style" : "",
					"text" : "p Convert"
				}

			}
, 			{
				"box" : 				{
					"fontname" : "Arial Bold",
					"fontsize" : 10.0,
					"id" : "obj-28",
					"maxclass" : "newobj",
					"numinlets" : 1,
					"numoutlets" : 1,
					"outlettype" : [ "int" ],
					"patcher" : 					{
						"fileversion" : 1,
						"appversion" : 						{
							"major" : 8,
							"minor" : 0,
							"revision" : 0,
							"architecture" : "x64",
							"modernui" : 1
						}
,
						"rect" : [ 659.0, 79.0, 277.0, 243.0 ],
						"bglocked" : 0,
						"openinpresentation" : 0,
						"default_fontsize" : 10.0,
						"default_fontface" : 0,
						"default_fontname" : "Arial Bold",
						"gridonopen" : 1,
						"gridsize" : [ 8.0, 8.0 ],
						"gridsnaponopen" : 1,
						"objectsnaponopen" : 1,
						"statusbarvisible" : 2,
						"toolbarvisible" : 1,
						"lefttoolbarpinned" : 0,
						"toptoolbarpinned" : 0,
						"righttoolbarpinned" : 0,
						"bottomtoolbarpinned" : 0,
						"toolbars_unpinned_last_save" : 0,
						"tallnewobj" : 0,
						"boxanimatetime" : 200,
						"enablehscroll" : 1,
						"enablevscroll" : 1,
						"devicewidth" : 0.0,
						"description" : "",
						"digest" : "",
						"tags" : "",
						"style" : "",
						"subpatcher_template" : "",
						"boxes" : [ 							{
								"box" : 								{
									"fontname" : "Arial Bold",
									"fontsize" : 10.0,
									"id" : "obj-3",
									"maxclass" : "newobj",
									"numinlets" : 2,
									"numoutlets" : 1,
									"outlettype" : [ "int" ],
									"patching_rect" : [ 88.0, 112.0, 32.5, 20.0 ],
									"presentation_rect" : [ 88.0, 112.0, 32.5, 20.0 ],
									"style" : "",
									"text" : "int"
								}

							}
, 							{
								"box" : 								{
									"fontname" : "Arial Bold",
									"fontsize" : 10.0,
									"id" : "obj-10",
									"maxclass" : "newobj",
									"numinlets" : 1,
									"numoutlets" : 2,
									"outlettype" : [ "signal", "float" ],
									"patching_rect" : [ 32.0, 56.0, 75.0, 20.0 ],
									"presentation_rect" : [ 32.0, 56.0, 75.0, 20.0 ],
									"style" : "",
									"text" : "mstosamps~"
								}

							}
, 							{
								"box" : 								{
									"fontname" : "Arial Bold",
									"fontsize" : 10.0,
									"id" : "obj-1",
									"maxclass" : "newobj",
									"numinlets" : 2,
									"numoutlets" : 1,
									"outlettype" : [ "float" ],
									"patching_rect" : [ 88.0, 80.0, 33.0, 20.0 ],
									"presentation_rect" : [ 88.0, 80.0, 33.0, 20.0 ],
									"style" : "",
									"text" : "+ 0.5"
								}

							}
, 							{
								"box" : 								{
									"fontname" : "Arial Bold",
									"fontsize" : 10.0,
									"id" : "obj-6",
									"maxclass" : "comment",
									"numinlets" : 1,
									"numoutlets" : 0,
									"patching_rect" : [ 112.0, 136.0, 87.0, 18.0 ],
									"presentation_rect" : [ 112.0, 136.0, 87.0, 18.0 ],
									"style" : "",
									"text" : "Rate in samples"
								}

							}
, 							{
								"box" : 								{
									"fontname" : "Arial",
									"fontsize" : 10.0,
									"id" : "obj-2",
									"linecount" : 4,
									"maxclass" : "comment",
									"numinlets" : 1,
									"numoutlets" : 0,
									"patching_rect" : [ 112.0, 24.0, 144.0, 51.0 ],
									"presentation_linecount" : 4,
									"presentation_rect" : [ 112.0, 24.0, 144.0, 51.0 ],
									"style" : "",
									"text" : "Convert value 0-1 to  samples (according to actual sample rate), with rounding to nearest integer"
								}

							}
, 							{
								"box" : 								{
									"comment" : "",
									"id" : "obj-65",
									"index" : 1,
									"maxclass" : "inlet",
									"numinlets" : 0,
									"numoutlets" : 1,
									"outlettype" : [ "float" ],
									"patching_rect" : [ 32.0, 16.0, 18.0, 18.0 ],
									"presentation_rect" : [ 32.0, 16.0, 18.0, 18.0 ],
									"style" : ""
								}

							}
, 							{
								"box" : 								{
									"comment" : "",
									"id" : "obj-66",
									"index" : 1,
									"maxclass" : "outlet",
									"numinlets" : 1,
									"numoutlets" : 0,
									"patching_rect" : [ 88.0, 136.0, 18.0, 18.0 ],
									"presentation_rect" : [ 88.0, 136.0, 18.0, 18.0 ],
									"style" : ""
								}

							}
 ],
						"lines" : [ 							{
								"patchline" : 								{
									"destination" : [ "obj-3", 0 ],
									"source" : [ "obj-1", 0 ]
								}

							}
, 							{
								"patchline" : 								{
									"destination" : [ "obj-1", 0 ],
									"source" : [ "obj-10", 1 ]
								}

							}
, 							{
								"patchline" : 								{
									"destination" : [ "obj-66", 0 ],
									"source" : [ "obj-3", 0 ]
								}

							}
, 							{
								"patchline" : 								{
									"destination" : [ "obj-10", 0 ],
									"source" : [ "obj-65", 0 ]
								}

							}
 ]
					}
,
					"patching_rect" : [ 335.25, 261.487427, 58.0, 20.0 ],
					"presentation_rect" : [ 335.25, 261.487427, 58.0, 20.0 ],
					"saved_object_attributes" : 					{
						"description" : "",
						"digest" : "",
						"fontname" : "Arial Bold",
						"fontsize" : 10.0,
						"globalpatchername" : "",
						"style" : "",
						"tags" : ""
					}
,
					"style" : "",
					"text" : "p Convert"
				}

			}
, 			{
				"box" : 				{
					"fontname" : "Arial Bold",
					"fontsize" : 10.0,
					"id" : "obj-97",
					"maxclass" : "newobj",
					"numinlets" : 2,
					"numoutlets" : 1,
					"outlettype" : [ "" ],
					"patcher" : 					{
						"fileversion" : 1,
						"appversion" : 						{
							"major" : 8,
							"minor" : 0,
							"revision" : 0,
							"architecture" : "x64",
							"modernui" : 1
						}
,
						"rect" : [ 659.0, 44.0, 277.0, 243.0 ],
						"bglocked" : 0,
						"openinpresentation" : 0,
						"default_fontsize" : 10.0,
						"default_fontface" : 0,
						"default_fontname" : "Arial Bold",
						"gridonopen" : 1,
						"gridsize" : [ 8.0, 8.0 ],
						"gridsnaponopen" : 1,
						"objectsnaponopen" : 1,
						"statusbarvisible" : 2,
						"toolbarvisible" : 1,
						"lefttoolbarpinned" : 0,
						"toptoolbarpinned" : 0,
						"righttoolbarpinned" : 0,
						"bottomtoolbarpinned" : 0,
						"toolbars_unpinned_last_save" : 0,
						"tallnewobj" : 0,
						"boxanimatetime" : 200,
						"enablehscroll" : 1,
						"enablevscroll" : 1,
						"devicewidth" : 0.0,
						"description" : "",
						"digest" : "",
						"tags" : "",
						"style" : "",
						"subpatcher_template" : "",
						"boxes" : [ 							{
								"box" : 								{
									"fontname" : "Arial Bold",
									"fontsize" : 10.0,
									"id" : "obj-9",
									"maxclass" : "newobj",
									"numinlets" : 2,
									"numoutlets" : 2,
									"outlettype" : [ "", "" ],
									"patching_rect" : [ 32.0, 48.0, 43.0, 18.0 ],
									"presentation_rect" : [ 32.0, 48.0, 43.0, 18.0 ],
									"style" : "",
									"text" : "bondo"
								}

							}
, 							{
								"box" : 								{
									"fontname" : "Arial Bold",
									"fontsize" : 10.0,
									"id" : "obj-5",
									"maxclass" : "newobj",
									"numinlets" : 2,
									"numoutlets" : 1,
									"outlettype" : [ "float" ],
									"patching_rect" : [ 32.0, 104.0, 42.5, 18.0 ],
									"presentation_rect" : [ 32.0, 104.0, 42.5, 18.0 ],
									"style" : "",
									"text" : "* 0."
								}

							}
, 							{
								"box" : 								{
									"fontname" : "Arial Bold",
									"fontsize" : 10.0,
									"id" : "obj-4",
									"maxclass" : "newobj",
									"numinlets" : 2,
									"numoutlets" : 1,
									"outlettype" : [ "float" ],
									"patching_rect" : [ 56.0, 72.0, 32.5, 18.0 ],
									"presentation_rect" : [ 56.0, 72.0, 32.5, 18.0 ],
									"style" : "",
									"text" : "* 0.5"
								}

							}
, 							{
								"box" : 								{
									"comment" : "sample rate",
									"id" : "obj-3",
									"index" : 2,
									"maxclass" : "inlet",
									"numinlets" : 0,
									"numoutlets" : 1,
									"outlettype" : [ "float" ],
									"patching_rect" : [ 56.0, 16.0, 18.0, 18.0 ],
									"presentation_rect" : [ 56.0, 16.0, 18.0, 18.0 ],
									"style" : ""
								}

							}
, 							{
								"box" : 								{
									"fontname" : "Arial Bold",
									"fontsize" : 10.0,
									"id" : "obj-1",
									"maxclass" : "newobj",
									"numinlets" : 2,
									"numoutlets" : 1,
									"outlettype" : [ "" ],
									"patching_rect" : [ 32.0, 136.0, 39.0, 18.0 ],
									"presentation_rect" : [ 32.0, 136.0, 39.0, 18.0 ],
									"style" : "",
									"text" : "round"
								}

							}
, 							{
								"box" : 								{
									"fontname" : "Arial Bold",
									"fontsize" : 10.0,
									"id" : "obj-6",
									"maxclass" : "comment",
									"numinlets" : 1,
									"numoutlets" : 0,
									"patching_rect" : [ 56.0, 168.0, 87.0, 18.0 ],
									"presentation_rect" : [ 56.0, 168.0, 87.0, 18.0 ],
									"style" : "",
									"text" : "Rate in samples"
								}

							}
, 							{
								"box" : 								{
									"fontname" : "Arial",
									"fontsize" : 10.0,
									"id" : "obj-2",
									"linecount" : 4,
									"maxclass" : "comment",
									"numinlets" : 1,
									"numoutlets" : 0,
									"patching_rect" : [ 96.0, 16.0, 144.0, 51.0 ],
									"presentation_linecount" : 4,
									"presentation_rect" : [ 96.0, 16.0, 144.0, 51.0 ],
									"style" : "",
									"text" : "Convert value 0-1 to  samples (according to actual sample rate), with rounding to nearest integer"
								}

							}
, 							{
								"box" : 								{
									"comment" : "",
									"id" : "obj-65",
									"index" : 1,
									"maxclass" : "inlet",
									"numinlets" : 0,
									"numoutlets" : 1,
									"outlettype" : [ "" ],
									"patching_rect" : [ 32.0, 16.0, 18.0, 18.0 ],
									"presentation_rect" : [ 32.0, 16.0, 18.0, 18.0 ],
									"style" : ""
								}

							}
, 							{
								"box" : 								{
									"comment" : "",
									"id" : "obj-66",
									"index" : 1,
									"maxclass" : "outlet",
									"numinlets" : 1,
									"numoutlets" : 0,
									"patching_rect" : [ 32.0, 168.0, 18.0, 18.0 ],
									"presentation_rect" : [ 32.0, 168.0, 18.0, 18.0 ],
									"style" : ""
								}

							}
 ],
						"lines" : [ 							{
								"patchline" : 								{
									"destination" : [ "obj-66", 0 ],
									"source" : [ "obj-1", 0 ]
								}

							}
, 							{
								"patchline" : 								{
									"destination" : [ "obj-9", 1 ],
									"source" : [ "obj-3", 0 ]
								}

							}
, 							{
								"patchline" : 								{
									"destination" : [ "obj-5", 1 ],
									"source" : [ "obj-4", 0 ]
								}

							}
, 							{
								"patchline" : 								{
									"destination" : [ "obj-1", 0 ],
									"source" : [ "obj-5", 0 ]
								}

							}
, 							{
								"patchline" : 								{
									"destination" : [ "obj-9", 0 ],
									"source" : [ "obj-65", 0 ]
								}

							}
, 							{
								"patchline" : 								{
									"destination" : [ "obj-4", 0 ],
									"source" : [ "obj-9", 1 ]
								}

							}
, 							{
								"patchline" : 								{
									"destination" : [ "obj-5", 0 ],
									"source" : [ "obj-9", 0 ]
								}

							}
 ]
					}
,
					"patching_rect" : [ 485.25, 266.487427, 57.0, 20.0 ],
					"presentation_rect" : [ 485.25, 266.487427, 57.0, 20.0 ],
					"saved_object_attributes" : 					{
						"description" : "",
						"digest" : "",
						"fontname" : "Arial Bold",
						"fontsize" : 10.0,
						"globalpatchername" : "",
						"style" : "",
						"tags" : ""
					}
,
					"style" : "",
					"text" : "p Convert"
				}

			}
, 			{
				"box" : 				{
					"fontname" : "Arial Bold",
					"fontsize" : 10.0,
					"id" : "obj-63",
					"maxclass" : "newobj",
					"numinlets" : 1,
					"numoutlets" : 4,
					"outlettype" : [ "int", "float", "int", "int" ],
					"patching_rect" : [ 453.416626, 187.487427, 66.5, 20.0 ],
					"presentation_rect" : [ 453.416626, 187.487427, 66.5, 20.0 ],
					"style" : "",
					"text" : "dspstate~"
				}

			}
, 			{
				"box" : 				{
					"fontname" : "Arial Bold",
					"fontsize" : 10.0,
					"id" : "obj-54",
					"maxclass" : "newobj",
					"numinlets" : 2,
					"numoutlets" : 1,
					"outlettype" : [ "signal" ],
					"patching_rect" : [ 205.25, 188.487427, 65.0, 20.0 ],
					"presentation_rect" : [ 205.25, 188.487427, 65.0, 20.0 ],
					"style" : "",
					"text" : "*~ 0.707107"
				}

			}
, 			{
				"box" : 				{
					"fontname" : "Arial Bold",
					"fontsize" : 10.0,
					"id" : "obj-113",
					"maxclass" : "newobj",
					"numinlets" : 2,
					"numoutlets" : 1,
					"outlettype" : [ "" ],
					"patcher" : 					{
						"fileversion" : 1,
						"appversion" : 						{
							"major" : 8,
							"minor" : 0,
							"revision" : 0,
							"architecture" : "x64",
							"modernui" : 1
						}
,
						"rect" : [ 659.0, 79.0, 277.0, 243.0 ],
						"bglocked" : 0,
						"openinpresentation" : 0,
						"default_fontsize" : 10.0,
						"default_fontface" : 0,
						"default_fontname" : "Arial Bold",
						"gridonopen" : 1,
						"gridsize" : [ 8.0, 8.0 ],
						"gridsnaponopen" : 1,
						"objectsnaponopen" : 1,
						"statusbarvisible" : 2,
						"toolbarvisible" : 1,
						"lefttoolbarpinned" : 0,
						"toptoolbarpinned" : 0,
						"righttoolbarpinned" : 0,
						"bottomtoolbarpinned" : 0,
						"toolbars_unpinned_last_save" : 0,
						"tallnewobj" : 0,
						"boxanimatetime" : 200,
						"enablehscroll" : 1,
						"enablevscroll" : 1,
						"devicewidth" : 0.0,
						"description" : "",
						"digest" : "",
						"tags" : "",
						"style" : "",
						"subpatcher_template" : "",
						"boxes" : [ 							{
								"box" : 								{
									"fontname" : "Arial Bold",
									"fontsize" : 10.0,
									"id" : "obj-9",
									"maxclass" : "newobj",
									"numinlets" : 2,
									"numoutlets" : 2,
									"outlettype" : [ "", "" ],
									"patching_rect" : [ 32.0, 48.0, 43.0, 20.0 ],
									"presentation_rect" : [ 32.0, 48.0, 43.0, 20.0 ],
									"style" : "",
									"text" : "bondo"
								}

							}
, 							{
								"box" : 								{
									"fontname" : "Arial Bold",
									"fontsize" : 10.0,
									"id" : "obj-5",
									"maxclass" : "newobj",
									"numinlets" : 2,
									"numoutlets" : 1,
									"outlettype" : [ "float" ],
									"patching_rect" : [ 32.0, 104.0, 42.5, 20.0 ],
									"presentation_rect" : [ 32.0, 104.0, 42.5, 20.0 ],
									"style" : "",
									"text" : "* 0."
								}

							}
, 							{
								"box" : 								{
									"fontname" : "Arial Bold",
									"fontsize" : 10.0,
									"id" : "obj-4",
									"maxclass" : "newobj",
									"numinlets" : 2,
									"numoutlets" : 1,
									"outlettype" : [ "float" ],
									"patching_rect" : [ 56.0, 72.0, 32.5, 20.0 ],
									"presentation_rect" : [ 56.0, 72.0, 32.5, 20.0 ],
									"style" : "",
									"text" : "* 0.5"
								}

							}
, 							{
								"box" : 								{
									"comment" : "sample rate",
									"id" : "obj-3",
									"index" : 2,
									"maxclass" : "inlet",
									"numinlets" : 0,
									"numoutlets" : 1,
									"outlettype" : [ "float" ],
									"patching_rect" : [ 56.0, 16.0, 18.0, 18.0 ],
									"presentation_rect" : [ 56.0, 16.0, 18.0, 18.0 ],
									"style" : ""
								}

							}
, 							{
								"box" : 								{
									"fontname" : "Arial Bold",
									"fontsize" : 10.0,
									"id" : "obj-1",
									"maxclass" : "newobj",
									"numinlets" : 2,
									"numoutlets" : 1,
									"outlettype" : [ "" ],
									"patching_rect" : [ 32.0, 136.0, 39.0, 20.0 ],
									"presentation_rect" : [ 32.0, 136.0, 39.0, 20.0 ],
									"style" : "",
									"text" : "round"
								}

							}
, 							{
								"box" : 								{
									"fontname" : "Arial Bold",
									"fontsize" : 10.0,
									"id" : "obj-6",
									"maxclass" : "comment",
									"numinlets" : 1,
									"numoutlets" : 0,
									"patching_rect" : [ 56.0, 168.0, 87.0, 18.0 ],
									"presentation_rect" : [ 56.0, 168.0, 87.0, 18.0 ],
									"style" : "",
									"text" : "Rate in samples"
								}

							}
, 							{
								"box" : 								{
									"fontname" : "Arial",
									"fontsize" : 10.0,
									"id" : "obj-2",
									"linecount" : 4,
									"maxclass" : "comment",
									"numinlets" : 1,
									"numoutlets" : 0,
									"patching_rect" : [ 96.0, 16.0, 144.0, 51.0 ],
									"presentation_linecount" : 4,
									"presentation_rect" : [ 96.0, 16.0, 144.0, 51.0 ],
									"style" : "",
									"text" : "Convert value 0-1 to  samples (according to actual sample rate), with rounding to nearest integer"
								}

							}
, 							{
								"box" : 								{
									"comment" : "",
									"id" : "obj-65",
									"index" : 1,
									"maxclass" : "inlet",
									"numinlets" : 0,
									"numoutlets" : 1,
									"outlettype" : [ "" ],
									"patching_rect" : [ 32.0, 16.0, 18.0, 18.0 ],
									"presentation_rect" : [ 32.0, 16.0, 18.0, 18.0 ],
									"style" : ""
								}

							}
, 							{
								"box" : 								{
									"comment" : "",
									"id" : "obj-66",
									"index" : 1,
									"maxclass" : "outlet",
									"numinlets" : 1,
									"numoutlets" : 0,
									"patching_rect" : [ 32.0, 168.0, 18.0, 18.0 ],
									"presentation_rect" : [ 32.0, 168.0, 18.0, 18.0 ],
									"style" : ""
								}

							}
 ],
						"lines" : [ 							{
								"patchline" : 								{
									"destination" : [ "obj-66", 0 ],
									"source" : [ "obj-1", 0 ]
								}

							}
, 							{
								"patchline" : 								{
									"destination" : [ "obj-9", 1 ],
									"source" : [ "obj-3", 0 ]
								}

							}
, 							{
								"patchline" : 								{
									"destination" : [ "obj-5", 1 ],
									"source" : [ "obj-4", 0 ]
								}

							}
, 							{
								"patchline" : 								{
									"destination" : [ "obj-1", 0 ],
									"source" : [ "obj-5", 0 ]
								}

							}
, 							{
								"patchline" : 								{
									"destination" : [ "obj-9", 0 ],
									"source" : [ "obj-65", 0 ]
								}

							}
, 							{
								"patchline" : 								{
									"destination" : [ "obj-4", 0 ],
									"source" : [ "obj-9", 1 ]
								}

							}
, 							{
								"patchline" : 								{
									"destination" : [ "obj-5", 0 ],
									"source" : [ "obj-9", 0 ]
								}

							}
 ]
					}
,
					"patching_rect" : [ 429.25, 216.487427, 59.0, 20.0 ],
					"presentation_rect" : [ 429.25, 216.487427, 59.0, 20.0 ],
					"saved_object_attributes" : 					{
						"description" : "",
						"digest" : "",
						"fontname" : "Arial Bold",
						"fontsize" : 10.0,
						"globalpatchername" : "",
						"style" : "",
						"tags" : ""
					}
,
					"style" : "",
					"text" : "p Convert"
				}

			}
, 			{
				"box" : 				{
					"fontname" : "Arial Bold",
					"fontsize" : 10.0,
					"id" : "obj-59",
					"maxclass" : "newobj",
					"numinlets" : 6,
					"numoutlets" : 1,
					"outlettype" : [ "signal" ],
					"patcher" : 					{
						"fileversion" : 1,
						"appversion" : 						{
							"major" : 8,
							"minor" : 0,
							"revision" : 0,
							"architecture" : "x64",
							"modernui" : 1
						}
,
						"rect" : [ 823.0, 310.0, 380.0, 434.0 ],
						"bglocked" : 0,
						"openinpresentation" : 0,
						"default_fontsize" : 10.0,
						"default_fontface" : 0,
						"default_fontname" : "Arial Bold",
						"gridonopen" : 1,
						"gridsize" : [ 8.0, 8.0 ],
						"gridsnaponopen" : 1,
						"objectsnaponopen" : 1,
						"statusbarvisible" : 2,
						"toolbarvisible" : 1,
						"lefttoolbarpinned" : 0,
						"toptoolbarpinned" : 0,
						"righttoolbarpinned" : 0,
						"bottomtoolbarpinned" : 0,
						"toolbars_unpinned_last_save" : 0,
						"tallnewobj" : 0,
						"boxanimatetime" : 200,
						"enablehscroll" : 1,
						"enablevscroll" : 1,
						"devicewidth" : 0.0,
						"description" : "",
						"digest" : "",
						"tags" : "",
						"style" : "",
						"subpatcher_template" : "",
						"boxes" : [ 							{
								"box" : 								{
									"fontname" : "Arial Bold",
									"fontsize" : 10.0,
									"id" : "obj-11",
									"maxclass" : "newobj",
									"numinlets" : 0,
									"numoutlets" : 1,
									"outlettype" : [ "" ],
									"patcher" : 									{
										"fileversion" : 1,
										"appversion" : 										{
											"major" : 8,
											"minor" : 0,
											"revision" : 0,
											"architecture" : "x64",
											"modernui" : 1
										}
,
										"rect" : [ 426.0, 111.0, 357.0, 193.0 ],
										"bglocked" : 0,
										"openinpresentation" : 0,
										"default_fontsize" : 10.0,
										"default_fontface" : 0,
										"default_fontname" : "Arial Bold",
										"gridonopen" : 1,
										"gridsize" : [ 8.0, 8.0 ],
										"gridsnaponopen" : 1,
										"objectsnaponopen" : 1,
										"statusbarvisible" : 2,
										"toolbarvisible" : 1,
										"lefttoolbarpinned" : 0,
										"toptoolbarpinned" : 0,
										"righttoolbarpinned" : 0,
										"bottomtoolbarpinned" : 0,
										"toolbars_unpinned_last_save" : 0,
										"tallnewobj" : 0,
										"boxanimatetime" : 200,
										"enablehscroll" : 1,
										"enablevscroll" : 1,
										"devicewidth" : 0.0,
										"description" : "",
										"digest" : "",
										"tags" : "",
										"style" : "",
										"subpatcher_template" : "",
										"boxes" : [ 											{
												"box" : 												{
													"fontname" : "Arial Bold",
													"fontsize" : 10.0,
													"id" : "obj-1",
													"linecount" : 5,
													"maxclass" : "comment",
													"numinlets" : 1,
													"numoutlets" : 0,
													"patching_rect" : [ 152.0, 32.0, 145.0, 62.0 ],
													"presentation_linecount" : 5,
													"presentation_rect" : [ 152.0, 32.0, 145.0, 62.0 ],
													"style" : "",
													"text" : "allocate delay memory:\n12 = 4 (4n notes) * 3 sec (1n note at 60BPM take 1 sec, at 20 BPM take 3 sec ) \n\n"
												}

											}
, 											{
												"box" : 												{
													"fontname" : "Arial Bold",
													"fontsize" : 10.0,
													"id" : "obj-9",
													"maxclass" : "newobj",
													"numinlets" : 1,
													"numoutlets" : 1,
													"outlettype" : [ "" ],
													"patching_rect" : [ 48.0, 120.0, 92.0, 20.0 ],
													"presentation_rect" : [ 48.0, 120.0, 92.0, 20.0 ],
													"style" : "",
													"text" : "prepend maxsize"
												}

											}
, 											{
												"box" : 												{
													"fontname" : "Arial Bold",
													"fontsize" : 10.0,
													"id" : "obj-19",
													"maxclass" : "newobj",
													"numinlets" : 2,
													"numoutlets" : 1,
													"outlettype" : [ "int" ],
													"patching_rect" : [ 96.0, 64.0, 32.5, 20.0 ],
													"presentation_rect" : [ 96.0, 64.0, 32.5, 20.0 ],
													"style" : "",
													"text" : "* 12"
												}

											}
, 											{
												"box" : 												{
													"fontname" : "Arial Bold",
													"fontsize" : 10.0,
													"id" : "obj-18",
													"maxclass" : "message",
													"numinlets" : 2,
													"numoutlets" : 1,
													"outlettype" : [ "" ],
													"patching_rect" : [ 48.0, 88.0, 67.0, 20.0 ],
													"presentation_rect" : [ 48.0, 88.0, 67.0, 20.0 ],
													"style" : "",
													"text" : "529200"
												}

											}
, 											{
												"box" : 												{
													"fontname" : "Arial Bold",
													"fontsize" : 10.0,
													"id" : "obj-17",
													"maxclass" : "newobj",
													"numinlets" : 1,
													"numoutlets" : 2,
													"outlettype" : [ "bang", "int" ],
													"patching_rect" : [ 48.0, 40.0, 34.5, 20.0 ],
													"presentation_rect" : [ 48.0, 40.0, 34.5, 20.0 ],
													"style" : "",
													"text" : "t b i"
												}

											}
, 											{
												"box" : 												{
													"fontname" : "Arial Bold",
													"fontsize" : 10.0,
													"id" : "obj-13",
													"maxclass" : "newobj",
													"numinlets" : 1,
													"numoutlets" : 4,
													"outlettype" : [ "int", "float", "int", "int" ],
													"patching_rect" : [ 32.0, 16.0, 67.5, 20.0 ],
													"presentation_rect" : [ 32.0, 16.0, 67.5, 20.0 ],
													"style" : "",
													"text" : "dspstate~"
												}

											}
, 											{
												"box" : 												{
													"annotation" : "",
													"comment" : "memory to allocate the delay",
													"id" : "obj-10",
													"index" : 1,
													"maxclass" : "outlet",
													"numinlets" : 1,
													"numoutlets" : 0,
													"patching_rect" : [ 48.0, 152.0, 18.0, 18.0 ],
													"presentation_rect" : [ 48.0, 152.0, 18.0, 18.0 ],
													"style" : ""
												}

											}
 ],
										"lines" : [ 											{
												"patchline" : 												{
													"destination" : [ "obj-17", 0 ],
													"source" : [ "obj-13", 1 ]
												}

											}
, 											{
												"patchline" : 												{
													"destination" : [ "obj-18", 0 ],
													"source" : [ "obj-17", 0 ]
												}

											}
, 											{
												"patchline" : 												{
													"destination" : [ "obj-19", 0 ],
													"source" : [ "obj-17", 1 ]
												}

											}
, 											{
												"patchline" : 												{
													"destination" : [ "obj-9", 0 ],
													"source" : [ "obj-18", 0 ]
												}

											}
, 											{
												"patchline" : 												{
													"destination" : [ "obj-18", 1 ],
													"source" : [ "obj-19", 0 ]
												}

											}
, 											{
												"patchline" : 												{
													"destination" : [ "obj-10", 0 ],
													"source" : [ "obj-9", 0 ]
												}

											}
 ]
									}
,
									"patching_rect" : [ 8.0, 40.0, 104.0, 20.0 ],
									"presentation_rect" : [ 8.0, 40.0, 104.0, 20.0 ],
									"saved_object_attributes" : 									{
										"description" : "",
										"digest" : "",
										"fontname" : "Arial Bold",
										"fontsize" : 10.0,
										"globalpatchername" : "",
										"style" : "",
										"tags" : ""
									}
,
									"style" : "",
									"text" : "p getMaxDelayTime"
								}

							}
, 							{
								"box" : 								{
									"fontname" : "Arial Bold",
									"fontsize" : 10.0,
									"id" : "obj-2",
									"maxclass" : "newobj",
									"numinlets" : 2,
									"numoutlets" : 1,
									"outlettype" : [ "signal" ],
									"patching_rect" : [ 120.0, 120.0, 84.0, 20.0 ],
									"presentation_rect" : [ 120.0, 120.0, 84.0, 20.0 ],
									"style" : "",
									"text" : "delay~ 1058400"
								}

							}
, 							{
								"box" : 								{
									"comment" : "Offset",
									"id" : "obj-8",
									"index" : 4,
									"maxclass" : "inlet",
									"numinlets" : 0,
									"numoutlets" : 1,
									"outlettype" : [ "" ],
									"patching_rect" : [ 232.0, 40.0, 18.0, 18.0 ],
									"presentation_rect" : [ 232.0, 40.0, 18.0, 18.0 ],
									"style" : ""
								}

							}
, 							{
								"box" : 								{
									"comment" : "Fall",
									"id" : "obj-7",
									"index" : 6,
									"maxclass" : "inlet",
									"numinlets" : 0,
									"numoutlets" : 1,
									"outlettype" : [ "" ],
									"patching_rect" : [ 296.0, 40.0, 18.0, 18.0 ],
									"presentation_rect" : [ 296.0, 40.0, 18.0, 18.0 ],
									"style" : ""
								}

							}
, 							{
								"box" : 								{
									"comment" : "Rise",
									"id" : "obj-6",
									"index" : 5,
									"maxclass" : "inlet",
									"numinlets" : 0,
									"numoutlets" : 1,
									"outlettype" : [ "" ],
									"patching_rect" : [ 264.0, 40.0, 18.0, 18.0 ],
									"presentation_rect" : [ 264.0, 40.0, 18.0, 18.0 ],
									"style" : ""
								}

							}
, 							{
								"box" : 								{
									"comment" : "Gain",
									"id" : "obj-5",
									"index" : 3,
									"maxclass" : "inlet",
									"numinlets" : 0,
									"numoutlets" : 1,
									"outlettype" : [ "" ],
									"patching_rect" : [ 200.0, 40.0, 18.0, 18.0 ],
									"presentation_rect" : [ 200.0, 40.0, 18.0, 18.0 ],
									"style" : ""
								}

							}
, 							{
								"box" : 								{
									"fontname" : "Arial Italic",
									"fontsize" : 10.0,
									"id" : "obj-23",
									"linecount" : 2,
									"maxclass" : "comment",
									"numinlets" : 1,
									"numoutlets" : 0,
									"patching_rect" : [ 32.0, 200.0, 96.0, 29.0 ],
									"presentation_linecount" : 2,
									"presentation_rect" : [ 32.0, 200.0, 96.0, 29.0 ],
									"style" : "",
									"text" : "Logarithmic filter >\nAttack, Release"
								}

							}
, 							{
								"box" : 								{
									"fontname" : "Arial Bold",
									"fontsize" : 10.0,
									"id" : "obj-4",
									"maxclass" : "newobj",
									"numinlets" : 3,
									"numoutlets" : 1,
									"outlettype" : [ "signal" ],
									"patching_rect" : [ 120.0, 200.0, 46.0, 20.0 ],
									"presentation_rect" : [ 120.0, 200.0, 46.0, 20.0 ],
									"style" : "",
									"text" : "slide~"
								}

							}
, 							{
								"box" : 								{
									"color" : [ 0.545098, 0.85098, 0.592157, 1.0 ],
									"fontname" : "Arial Bold",
									"fontsize" : 10.0,
									"id" : "obj-74",
									"maxclass" : "newobj",
									"numinlets" : 3,
									"numoutlets" : 1,
									"outlettype" : [ "signal" ],
									"patcher" : 									{
										"fileversion" : 1,
										"appversion" : 										{
											"major" : 8,
											"minor" : 0,
											"revision" : 0,
											"architecture" : "x64",
											"modernui" : 1
										}
,
										"rect" : [ 1130.0, 79.0, 256.0, 307.0 ],
										"bglocked" : 0,
										"openinpresentation" : 0,
										"default_fontsize" : 10.0,
										"default_fontface" : 0,
										"default_fontname" : "Arial Bold",
										"gridonopen" : 1,
										"gridsize" : [ 8.0, 8.0 ],
										"gridsnaponopen" : 1,
										"objectsnaponopen" : 1,
										"statusbarvisible" : 2,
										"toolbarvisible" : 1,
										"lefttoolbarpinned" : 0,
										"toptoolbarpinned" : 0,
										"righttoolbarpinned" : 0,
										"bottomtoolbarpinned" : 0,
										"toolbars_unpinned_last_save" : 0,
										"tallnewobj" : 0,
										"boxanimatetime" : 200,
										"enablehscroll" : 1,
										"enablevscroll" : 1,
										"devicewidth" : 0.0,
										"description" : "",
										"digest" : "",
										"tags" : "",
										"style" : "",
										"subpatcher_template" : "",
										"boxes" : [ 											{
												"box" : 												{
													"fontname" : "Arial",
													"fontsize" : 10.0,
													"id" : "obj-17",
													"maxclass" : "comment",
													"numinlets" : 1,
													"numoutlets" : 0,
													"patching_rect" : [ 112.0, 144.0, 117.0, 18.0 ],
													"presentation_rect" : [ 112.0, 144.0, 117.0, 18.0 ],
													"style" : "",
													"text" : "< Multiply active by gain"
												}

											}
, 											{
												"box" : 												{
													"fontname" : "Arial Bold",
													"fontsize" : 10.0,
													"id" : "obj-16",
													"maxclass" : "newobj",
													"numinlets" : 2,
													"numoutlets" : 1,
													"outlettype" : [ "float" ],
													"patching_rect" : [ 64.0, 144.0, 32.5, 20.0 ],
													"presentation_rect" : [ 64.0, 144.0, 32.5, 20.0 ],
													"style" : "",
													"text" : "* 1."
												}

											}
, 											{
												"box" : 												{
													"fontname" : "Arial Bold",
													"fontsize" : 10.0,
													"id" : "obj-15",
													"maxclass" : "newobj",
													"numinlets" : 2,
													"numoutlets" : 1,
													"outlettype" : [ "" ],
													"patching_rect" : [ 64.0, 120.0, 51.0, 20.0 ],
													"presentation_rect" : [ 64.0, 120.0, 51.0, 20.0 ],
													"style" : "",
													"text" : "pak 1. 1."
												}

											}
, 											{
												"box" : 												{
													"fontname" : "Arial",
													"fontsize" : 10.0,
													"id" : "obj-14",
													"maxclass" : "comment",
													"numinlets" : 1,
													"numoutlets" : 0,
													"patching_rect" : [ 112.0, 168.0, 124.0, 18.0 ],
													"presentation_rect" : [ 112.0, 168.0, 124.0, 18.0 ],
													"style" : "",
													"text" : "< Ramp to value in 50 ms"
												}

											}
, 											{
												"box" : 												{
													"fontname" : "Arial Bold",
													"fontsize" : 10.0,
													"id" : "obj-13",
													"maxclass" : "message",
													"numinlets" : 2,
													"numoutlets" : 1,
													"outlettype" : [ "" ],
													"patching_rect" : [ 64.0, 168.0, 36.0, 20.0 ],
													"presentation_rect" : [ 64.0, 168.0, 36.0, 20.0 ],
													"style" : "",
													"text" : "$1 50"
												}

											}
, 											{
												"box" : 												{
													"fontname" : "Arial",
													"fontsize" : 10.0,
													"id" : "obj-8",
													"maxclass" : "comment",
													"numinlets" : 1,
													"numoutlets" : 0,
													"patching_rect" : [ 112.0, 192.0, 46.0, 18.0 ],
													"presentation_rect" : [ 112.0, 192.0, 46.0, 18.0 ],
													"style" : "",
													"text" : "< Ramp"
												}

											}
, 											{
												"box" : 												{
													"fontname" : "Arial Bold",
													"fontsize" : 10.0,
													"id" : "obj-3",
													"maxclass" : "newobj",
													"numinlets" : 2,
													"numoutlets" : 2,
													"outlettype" : [ "signal", "bang" ],
													"patching_rect" : [ 64.0, 192.0, 45.0, 20.0 ],
													"presentation_rect" : [ 64.0, 192.0, 45.0, 20.0 ],
													"style" : "",
													"text" : "line~ 1."
												}

											}
, 											{
												"box" : 												{
													"fontname" : "Arial",
													"fontsize" : 10.0,
													"id" : "obj-10",
													"maxclass" : "comment",
													"numinlets" : 1,
													"numoutlets" : 0,
													"patching_rect" : [ 83.0, 224.0, 51.0, 18.0 ],
													"presentation_rect" : [ 83.0, 224.0, 51.0, 18.0 ],
													"style" : "",
													"text" : "< Amplify"
												}

											}
, 											{
												"box" : 												{
													"fontname" : "Arial",
													"fontsize" : 10.0,
													"id" : "obj-9",
													"linecount" : 2,
													"maxclass" : "comment",
													"numinlets" : 1,
													"numoutlets" : 0,
													"patching_rect" : [ 135.0, 96.0, 87.0, 29.0 ],
													"presentation_linecount" : 2,
													"presentation_rect" : [ 135.0, 96.0, 87.0, 29.0 ],
													"style" : "",
													"text" : "< Convert dBs to linear amplitude"
												}

											}
, 											{
												"box" : 												{
													"fontname" : "Arial Bold",
													"fontsize" : 10.0,
													"id" : "obj-7",
													"maxclass" : "comment",
													"numinlets" : 1,
													"numoutlets" : 0,
													"patching_rect" : [ 56.0, 264.0, 74.0, 18.0 ],
													"presentation_rect" : [ 56.0, 264.0, 74.0, 18.0 ],
													"style" : "",
													"text" : "Scaled signal",
													"textcolor" : [ 0.301961, 0.337255, 0.403922, 1.0 ]
												}

											}
, 											{
												"box" : 												{
													"fontname" : "Arial Bold",
													"fontsize" : 10.0,
													"id" : "obj-6",
													"maxclass" : "comment",
													"numinlets" : 1,
													"numoutlets" : 0,
													"patching_rect" : [ 120.0, 64.0, 55.0, 18.0 ],
													"presentation_rect" : [ 120.0, 64.0, 55.0, 18.0 ],
													"style" : "",
													"text" : "Gain (dB)"
												}

											}
, 											{
												"box" : 												{
													"fontname" : "Arial Bold",
													"fontsize" : 10.0,
													"id" : "obj-5",
													"maxclass" : "comment",
													"numinlets" : 1,
													"numoutlets" : 0,
													"patching_rect" : [ 88.0, 40.0, 64.0, 18.0 ],
													"presentation_rect" : [ 88.0, 40.0, 64.0, 18.0 ],
													"style" : "",
													"text" : "Active (0/1)"
												}

											}
, 											{
												"box" : 												{
													"fontname" : "Arial Bold",
													"fontsize" : 10.0,
													"id" : "obj-4",
													"maxclass" : "comment",
													"numinlets" : 1,
													"numoutlets" : 0,
													"patching_rect" : [ 56.0, 16.0, 67.0, 18.0 ],
													"presentation_rect" : [ 56.0, 16.0, 67.0, 18.0 ],
													"style" : "",
													"text" : "Input signal",
													"textcolor" : [ 0.301961, 0.337255, 0.403922, 1.0 ]
												}

											}
, 											{
												"box" : 												{
													"comment" : "Gain (dB)",
													"id" : "obj-2",
													"index" : 3,
													"maxclass" : "inlet",
													"numinlets" : 0,
													"numoutlets" : 1,
													"outlettype" : [ "" ],
													"patching_rect" : [ 96.0, 64.0, 18.0, 18.0 ],
													"presentation_rect" : [ 96.0, 64.0, 18.0, 18.0 ],
													"style" : ""
												}

											}
, 											{
												"box" : 												{
													"comment" : "active 0/1",
													"id" : "obj-1",
													"index" : 2,
													"maxclass" : "inlet",
													"numinlets" : 0,
													"numoutlets" : 1,
													"outlettype" : [ "int" ],
													"patching_rect" : [ 64.0, 40.0, 18.0, 18.0 ],
													"presentation_rect" : [ 64.0, 40.0, 18.0, 18.0 ],
													"style" : ""
												}

											}
, 											{
												"box" : 												{
													"fontname" : "Arial Bold",
													"fontsize" : 10.0,
													"id" : "obj-49",
													"maxclass" : "newobj",
													"numinlets" : 1,
													"numoutlets" : 1,
													"outlettype" : [ "" ],
													"patching_rect" : [ 96.0, 96.0, 38.0, 20.0 ],
													"presentation_rect" : [ 96.0, 96.0, 38.0, 20.0 ],
													"style" : "",
													"text" : "dbtoa"
												}

											}
, 											{
												"box" : 												{
													"fontname" : "Arial Bold",
													"fontsize" : 10.0,
													"id" : "obj-25",
													"maxclass" : "newobj",
													"numinlets" : 2,
													"numoutlets" : 1,
													"outlettype" : [ "signal" ],
													"patching_rect" : [ 32.0, 224.0, 50.5, 20.0 ],
													"presentation_rect" : [ 32.0, 224.0, 50.5, 20.0 ],
													"style" : "",
													"text" : "*~ 1."
												}

											}
, 											{
												"box" : 												{
													"comment" : "signal",
													"id" : "obj-65",
													"index" : 1,
													"maxclass" : "inlet",
													"numinlets" : 0,
													"numoutlets" : 1,
													"outlettype" : [ "signal" ],
													"patching_rect" : [ 32.0, 16.0, 18.0, 18.0 ],
													"presentation_rect" : [ 32.0, 16.0, 18.0, 18.0 ],
													"style" : ""
												}

											}
, 											{
												"box" : 												{
													"comment" : "scaled signal",
													"id" : "obj-66",
													"index" : 1,
													"maxclass" : "outlet",
													"numinlets" : 1,
													"numoutlets" : 0,
													"patching_rect" : [ 32.0, 264.0, 18.0, 18.0 ],
													"presentation_rect" : [ 32.0, 264.0, 18.0, 18.0 ],
													"style" : ""
												}

											}
 ],
										"lines" : [ 											{
												"patchline" : 												{
													"destination" : [ "obj-15", 0 ],
													"source" : [ "obj-1", 0 ]
												}

											}
, 											{
												"patchline" : 												{
													"destination" : [ "obj-3", 0 ],
													"source" : [ "obj-13", 0 ]
												}

											}
, 											{
												"patchline" : 												{
													"destination" : [ "obj-16", 0 ],
													"source" : [ "obj-15", 0 ]
												}

											}
, 											{
												"patchline" : 												{
													"destination" : [ "obj-13", 0 ],
													"source" : [ "obj-16", 0 ]
												}

											}
, 											{
												"patchline" : 												{
													"destination" : [ "obj-49", 0 ],
													"source" : [ "obj-2", 0 ]
												}

											}
, 											{
												"patchline" : 												{
													"destination" : [ "obj-66", 0 ],
													"source" : [ "obj-25", 0 ]
												}

											}
, 											{
												"patchline" : 												{
													"destination" : [ "obj-25", 1 ],
													"source" : [ "obj-3", 0 ]
												}

											}
, 											{
												"patchline" : 												{
													"destination" : [ "obj-15", 1 ],
													"source" : [ "obj-49", 0 ]
												}

											}
, 											{
												"patchline" : 												{
													"destination" : [ "obj-25", 0 ],
													"source" : [ "obj-65", 0 ]
												}

											}
 ]
									}
,
									"patching_rect" : [ 120.0, 88.0, 99.0, 20.0 ],
									"presentation_rect" : [ 120.0, 88.0, 99.0, 20.0 ],
									"saved_object_attributes" : 									{
										"description" : "",
										"digest" : "",
										"fontname" : "Arial Bold",
										"fontsize" : 10.0,
										"globalpatchername" : "",
										"style" : "",
										"tags" : ""
									}
,
									"style" : "",
									"text" : "p Amp~"
								}

							}
, 							{
								"box" : 								{
									"fontname" : "Arial Italic",
									"fontsize" : 10.0,
									"id" : "obj-28",
									"maxclass" : "comment",
									"numinlets" : 1,
									"numoutlets" : 0,
									"patching_rect" : [ 32.0, 152.0, 81.167076, 18.0 ],
									"presentation_rect" : [ 32.0, 152.0, 81.167076, 18.0 ],
									"style" : "",
									"text" : "Signal average>"
								}

							}
, 							{
								"box" : 								{
									"fontname" : "Arial Bold",
									"fontsize" : 10.0,
									"id" : "obj-3",
									"maxclass" : "newobj",
									"numinlets" : 1,
									"numoutlets" : 1,
									"outlettype" : [ "signal" ],
									"patching_rect" : [ 120.0, 152.0, 100.0, 20.0 ],
									"presentation_rect" : [ 120.0, 152.0, 100.0, 20.0 ],
									"style" : "",
									"text" : "average~ 1000 rms"
								}

							}
, 							{
								"box" : 								{
									"fontname" : "Arial Bold",
									"fontsize" : 10.0,
									"id" : "obj-20",
									"linecount" : 2,
									"maxclass" : "comment",
									"numinlets" : 1,
									"numoutlets" : 0,
									"patching_rect" : [ 120.0, 296.0, 56.0, 29.0 ],
									"presentation_linecount" : 2,
									"presentation_rect" : [ 120.0, 296.0, 56.0, 29.0 ],
									"style" : "",
									"text" : "Envelope signal",
									"textcolor" : [ 0.3, 0.34, 0.4, 1.0 ]
								}

							}
, 							{
								"box" : 								{
									"comment" : "input signal",
									"id" : "obj-38",
									"index" : 1,
									"maxclass" : "inlet",
									"numinlets" : 0,
									"numoutlets" : 1,
									"outlettype" : [ "signal" ],
									"patching_rect" : [ 120.0, 39.999996, 18.0, 18.0 ],
									"presentation_rect" : [ 120.0, 39.999996, 18.0, 18.0 ],
									"style" : ""
								}

							}
, 							{
								"box" : 								{
									"comment" : "device on/off",
									"id" : "obj-40",
									"index" : 2,
									"maxclass" : "inlet",
									"numinlets" : 0,
									"numoutlets" : 1,
									"outlettype" : [ "int" ],
									"patching_rect" : [ 160.0, 40.0, 18.0, 18.0 ],
									"presentation_rect" : [ 160.0, 40.0, 18.0, 18.0 ],
									"style" : ""
								}

							}
, 							{
								"box" : 								{
									"comment" : "envelope",
									"id" : "obj-41",
									"index" : 1,
									"maxclass" : "outlet",
									"numinlets" : 1,
									"numoutlets" : 0,
									"patching_rect" : [ 120.0, 264.0, 18.0, 18.0 ],
									"presentation_rect" : [ 120.0, 264.0, 18.0, 18.0 ],
									"style" : ""
								}

							}
 ],
						"lines" : [ 							{
								"patchline" : 								{
									"destination" : [ "obj-2", 0 ],
									"source" : [ "obj-11", 0 ]
								}

							}
, 							{
								"patchline" : 								{
									"destination" : [ "obj-3", 0 ],
									"source" : [ "obj-2", 0 ]
								}

							}
, 							{
								"patchline" : 								{
									"destination" : [ "obj-4", 0 ],
									"source" : [ "obj-3", 0 ]
								}

							}
, 							{
								"patchline" : 								{
									"destination" : [ "obj-74", 0 ],
									"source" : [ "obj-38", 0 ]
								}

							}
, 							{
								"patchline" : 								{
									"destination" : [ "obj-41", 0 ],
									"source" : [ "obj-4", 0 ]
								}

							}
, 							{
								"patchline" : 								{
									"destination" : [ "obj-74", 1 ],
									"source" : [ "obj-40", 0 ]
								}

							}
, 							{
								"patchline" : 								{
									"destination" : [ "obj-74", 2 ],
									"source" : [ "obj-5", 0 ]
								}

							}
, 							{
								"patchline" : 								{
									"destination" : [ "obj-4", 1 ],
									"midpoints" : [ 273.5, 177.5, 143.0, 177.5 ],
									"source" : [ "obj-6", 0 ]
								}

							}
, 							{
								"patchline" : 								{
									"destination" : [ "obj-4", 2 ],
									"midpoints" : [ 305.5, 185.5, 156.5, 185.5 ],
									"source" : [ "obj-7", 0 ]
								}

							}
, 							{
								"patchline" : 								{
									"destination" : [ "obj-2", 0 ],
									"source" : [ "obj-74", 0 ]
								}

							}
, 							{
								"patchline" : 								{
									"destination" : [ "obj-2", 1 ],
									"midpoints" : [ 241.5, 116.5, 194.5, 116.5 ],
									"source" : [ "obj-8", 0 ]
								}

							}
 ]
					}
,
					"patching_rect" : [ 205.25, 334.487427, 299.0, 20.0 ],
					"presentation_rect" : [ 205.25, 334.487427, 299.0, 20.0 ],
					"saved_object_attributes" : 					{
						"description" : "",
						"digest" : "",
						"fontname" : "Arial Bold",
						"fontsize" : 10.0,
						"globalpatchername" : "",
						"style" : "",
						"tags" : ""
					}
,
					"style" : "",
					"text" : "p envelopeFolower"
				}

			}
, 			{
				"box" : 				{
					"color" : [ 0.984314, 0.819608, 0.05098, 1.0 ],
					"fontname" : "Arial Bold",
					"fontsize" : 10.0,
					"id" : "obj-23",
					"maxclass" : "newobj",
					"numinlets" : 1,
					"numoutlets" : 3,
					"outlettype" : [ "bang", "int", "int" ],
					"patching_rect" : [ 349.392212, 125.087463, 82.0, 20.0 ],
					"presentation_rect" : [ 349.392212, 125.087463, 82.0, 20.0 ],
					"style" : "",
					"text" : "live.thisdevice"
				}

			}
, 			{
				"box" : 				{
					"comment" : "",
					"id" : "obj-5",
					"index" : 1,
					"maxclass" : "outlet",
					"numinlets" : 1,
					"numoutlets" : 0,
					"patching_rect" : [ 551.38092, 437.0, 30.0, 30.0 ],
					"presentation_rect" : [ 551.38092, 437.0, 30.0, 30.0 ],
					"style" : ""
				}

			}
, 			{
				"box" : 				{
					"comment" : "",
					"id" : "obj-4",
					"index" : 3,
					"maxclass" : "inlet",
					"numinlets" : 0,
					"numoutlets" : 1,
					"outlettype" : [ "" ],
					"patching_rect" : [ 339.75, 78.0, 30.0, 30.0 ],
					"presentation_rect" : [ 339.75, 78.0, 30.0, 30.0 ],
					"style" : ""
				}

			}
, 			{
				"box" : 				{
					"comment" : "",
					"id" : "obj-3",
					"index" : 2,
					"maxclass" : "inlet",
					"numinlets" : 0,
					"numoutlets" : 1,
					"outlettype" : [ "signal" ],
					"patching_rect" : [ 223.86908, 84.0, 30.0, 30.0 ],
					"presentation_rect" : [ 223.86908, 84.0, 30.0, 30.0 ],
					"style" : ""
				}

			}
, 			{
				"box" : 				{
					"comment" : "",
					"id" : "obj-2",
					"index" : 1,
					"maxclass" : "inlet",
					"numinlets" : 0,
					"numoutlets" : 1,
					"outlettype" : [ "signal" ],
					"patching_rect" : [ 177.0, 84.0, 30.0, 30.0 ],
					"presentation_rect" : [ 177.0, 84.0, 30.0, 30.0 ],
					"style" : ""
				}

			}
 ],
		"lines" : [ 			{
				"patchline" : 				{
					"destination" : [ "obj-7", 0 ],
					"source" : [ "obj-1", 0 ]
				}

			}
, 			{
				"patchline" : 				{
					"destination" : [ "obj-31", 0 ],
					"source" : [ "obj-10", 0 ]
				}

			}
, 			{
				"patchline" : 				{
					"destination" : [ "obj-59", 4 ],
					"source" : [ "obj-113", 0 ]
				}

			}
, 			{
				"patchline" : 				{
					"destination" : [ "obj-54", 0 ],
					"source" : [ "obj-2", 0 ]
				}

			}
, 			{
				"patchline" : 				{
					"destination" : [ "obj-59", 1 ],
					"source" : [ "obj-23", 1 ]
				}

			}
, 			{
				"patchline" : 				{
					"destination" : [ "obj-63", 0 ],
					"order" : 0,
					"source" : [ "obj-23", 0 ]
				}

			}
, 			{
				"patchline" : 				{
					"destination" : [ "obj-77", 0 ],
					"order" : 1,
					"source" : [ "obj-23", 0 ]
				}

			}
, 			{
				"patchline" : 				{
					"destination" : [ "obj-81", 0 ],
					"order" : 2,
					"source" : [ "obj-23", 0 ]
				}

			}
, 			{
				"patchline" : 				{
					"destination" : [ "obj-86", 1 ],
					"source" : [ "obj-28", 0 ]
				}

			}
, 			{
				"patchline" : 				{
					"destination" : [ "obj-54", 0 ],
					"source" : [ "obj-3", 0 ]
				}

			}
, 			{
				"patchline" : 				{
					"destination" : [ "obj-46", 1 ],
					"source" : [ "obj-31", 0 ]
				}

			}
, 			{
				"patchline" : 				{
					"destination" : [ "obj-5", 0 ],
					"source" : [ "obj-36", 0 ]
				}

			}
, 			{
				"patchline" : 				{
					"destination" : [ "obj-59", 2 ],
					"source" : [ "obj-4", 0 ]
				}

			}
, 			{
				"patchline" : 				{
					"destination" : [ "obj-36", 0 ],
					"source" : [ "obj-46", 0 ]
				}

			}
, 			{
				"patchline" : 				{
					"destination" : [ "obj-85", 1 ],
					"source" : [ "obj-48", 0 ]
				}

			}
, 			{
				"patchline" : 				{
					"destination" : [ "obj-59", 0 ],
					"order" : 1,
					"source" : [ "obj-54", 0 ]
				}

			}
, 			{
				"patchline" : 				{
					"destination" : [ "obj-7", 1 ],
					"order" : 0,
					"source" : [ "obj-54", 0 ]
				}

			}
, 			{
				"patchline" : 				{
					"destination" : [ "obj-1", 0 ],
					"order" : 1,
					"source" : [ "obj-59", 0 ]
				}

			}
, 			{
				"patchline" : 				{
					"destination" : [ "obj-46", 0 ],
					"order" : 0,
					"source" : [ "obj-59", 0 ]
				}

			}
, 			{
				"patchline" : 				{
					"destination" : [ "obj-113", 1 ],
					"order" : 1,
					"source" : [ "obj-63", 1 ]
				}

			}
, 			{
				"patchline" : 				{
					"destination" : [ "obj-97", 1 ],
					"midpoints" : [ 478.749959, 218.487434, 532.75, 218.487434 ],
					"order" : 0,
					"source" : [ "obj-63", 1 ]
				}

			}
, 			{
				"patchline" : 				{
					"destination" : [ "obj-86", 0 ],
					"source" : [ "obj-76", 0 ]
				}

			}
, 			{
				"patchline" : 				{
					"destination" : [ "obj-48", 0 ],
					"source" : [ "obj-77", 0 ]
				}

			}
, 			{
				"patchline" : 				{
					"destination" : [ "obj-31", 0 ],
					"source" : [ "obj-8", 0 ]
				}

			}
, 			{
				"patchline" : 				{
					"destination" : [ "obj-28", 0 ],
					"source" : [ "obj-81", 0 ]
				}

			}
, 			{
				"patchline" : 				{
					"destination" : [ "obj-59", 3 ],
					"midpoints" : [ 409.892212, 319.139228, 382.75, 319.139228 ],
					"source" : [ "obj-85", 0 ]
				}

			}
, 			{
				"patchline" : 				{
					"destination" : [ "obj-59", 3 ],
					"midpoints" : [ 307.75, 327.139228, 382.75, 327.139228 ],
					"source" : [ "obj-86", 0 ]
				}

			}
, 			{
				"patchline" : 				{
					"destination" : [ "obj-59", 5 ],
					"source" : [ "obj-97", 0 ]
				}

			}
 ],
		"styles" : [ 			{
				"name" : "AudioStatus_Menu",
				"default" : 				{
					"bgfillcolor" : 					{
						"type" : "color",
						"color" : [ 0.294118, 0.313726, 0.337255, 1 ],
						"color1" : [ 0.454902, 0.462745, 0.482353, 0.0 ],
						"color2" : [ 0.290196, 0.309804, 0.301961, 1.0 ],
						"angle" : 270.0,
						"proportion" : 0.39,
						"autogradient" : 0
					}

				}
,
				"parentstyle" : "",
				"multi" : 0
			}
, 			{
				"name" : "Luca",
				"default" : 				{
					"color" : [ 0.475135, 0.293895, 0.251069, 1.0 ],
					"elementcolor" : [ 0.786675, 0.801885, 0.845022, 1.0 ],
					"fontname" : [ "Open Sans Semibold" ],
					"bgcolor" : [ 0.904179, 0.895477, 0.842975, 0.56 ],
					"selectioncolor" : [ 0.720698, 0.16723, 0.080014, 1.0 ],
					"textcolor_inverse" : [ 0.239216, 0.254902, 0.278431, 1.0 ],
					"bgfillcolor" : 					{
						"type" : "gradient",
						"color" : [ 0.290196, 0.309804, 0.301961, 1.0 ],
						"color1" : [ 0.862745, 0.870588, 0.878431, 1.0 ],
						"color2" : [ 0.65098, 0.666667, 0.662745, 1.0 ],
						"angle" : 270.0,
						"proportion" : 0.39,
						"autogradient" : 0
					}
,
					"accentcolor" : [ 0.32549, 0.345098, 0.372549, 1.0 ]
				}
,
				"parentstyle" : "",
				"multi" : 0
			}
, 			{
				"name" : "Matt",
				"default" : 				{
					"fontface" : [ 1 ],
					"fontsize" : [ 10.0 ]
				}
,
				"parentstyle" : "",
				"multi" : 0
			}
, 			{
				"name" : "WTF",
				"default" : 				{
					"color" : [ 0.113725, 0.580392, 0.737255, 1.0 ],
					"elementcolor" : [ 0.461105, 0.492646, 0.591878, 1.0 ],
					"fontname" : [ "HydrogenType" ],
					"bgcolor" : [ 0.163647, 0.174699, 0.17409, 1.0 ],
					"patchlinecolor" : [ 0.231373, 0.121569, 0.305882, 0.9 ],
					"bgfillcolor" : 					{
						"type" : "gradient",
						"color" : [ 0.290196, 0.309804, 0.301961, 1.0 ],
						"color1" : [ 0.32549, 0.345098, 0.372549, 1.0 ],
						"color2" : [ 0.290196, 0.309804, 0.301961, 1.0 ],
						"angle" : 270.0,
						"proportion" : 0.39,
						"autogradient" : 0
					}
,
					"fontsize" : [ 18.0 ],
					"accentcolor" : [ 0.50764, 0.065317, 0.112129, 1.0 ]
				}
,
				"parentstyle" : "",
				"multi" : 0
			}
, 			{
				"name" : "classic",
				"default" : 				{
					"color" : [ 0.498039, 0.498039, 0.498039, 1.0 ],
					"fontname" : [ "Geneva" ],
					"bgcolor" : [ 0.83978, 0.839941, 0.839753, 1.0 ],
					"textcolor_inverse" : [ 0.0, 0.0, 0.0, 1.0 ],
					"patchlinecolor" : [ 0.0, 0.0, 0.0, 1.0 ],
					"bgfillcolor" : 					{
						"type" : "color",
						"color1" : [ 0.83978, 0.839941, 0.839753, 1.0 ],
						"color2" : [ 0.290196, 0.309804, 0.301961, 1.0 ],
						"color" : [ 0.839216, 0.839216, 0.839216, 1.0 ],
						"angle" : 270.0,
						"proportion" : 0.39
					}
,
					"fontsize" : [ 9.0 ],
					"accentcolor" : [ 0.498039, 0.498039, 0.498039, 1.0 ]
				}
,
				"parentstyle" : "",
				"multi" : 0
			}
, 			{
				"name" : "classicButton",
				"default" : 				{
					"color" : [ 1.0, 0.890196, 0.090196, 1.0 ]
				}
,
				"parentstyle" : "",
				"multi" : 0
			}
, 			{
				"name" : "classicDial",
				"default" : 				{
					"color" : [ 1.0, 0.890196, 0.090196, 1.0 ]
				}
,
				"parentstyle" : "",
				"multi" : 0
			}
, 			{
				"name" : "classicGain~",
				"default" : 				{
					"color" : [ 0.380392, 0.380392, 0.380392, 1.0 ]
				}
,
				"parentstyle" : "",
				"multi" : 0
			}
, 			{
				"name" : "classicGswitch",
				"default" : 				{
					"accentcolor" : [ 1.0, 1.0, 1.0, 1.0 ]
				}
,
				"parentstyle" : "",
				"multi" : 0
			}
, 			{
				"name" : "classicGswitch2",
				"default" : 				{
					"accentcolor" : [ 1.0, 1.0, 1.0, 1.0 ]
				}
,
				"parentstyle" : "",
				"multi" : 0
			}
, 			{
				"name" : "classicKslider",
				"default" : 				{
					"color" : [ 1.0, 1.0, 1.0, 1.0 ],
					"elementcolor" : [ 0.498039, 0.498039, 0.498039, 1.0 ],
					"bgcolor" : [ 0.0, 0.0, 0.0, 1.0 ],
					"selectioncolor" : [ 0.498039, 0.498039, 0.498039, 1.0 ]
				}
,
				"parentstyle" : "",
				"multi" : 0
			}
, 			{
				"name" : "classicLed",
				"default" : 				{
					"color" : [ 1.0, 0.0, 0.0, 1.0 ],
					"elementcolor" : [ 0.6, 0.0, 0.0, 1.0 ]
				}
,
				"parentstyle" : "",
				"multi" : 0
			}
, 			{
				"name" : "classicMatrixctrl",
				"default" : 				{
					"color" : [ 1.0, 0.0, 0.0, 1.0 ]
				}
,
				"parentstyle" : "",
				"multi" : 0
			}
, 			{
				"name" : "classicMeter~",
				"default" : 				{
					"elementcolor" : [ 0.498039, 0.498039, 0.498039, 1.0 ],
					"bgcolor" : [ 0.380392, 0.380392, 0.380392, 1.0 ]
				}
,
				"parentstyle" : "",
				"multi" : 0
			}
, 			{
				"name" : "classicNodes",
				"default" : 				{
					"color" : [ 0.839216, 0.839216, 0.839216, 1.0 ],
					"elementcolor" : [ 0.498039, 0.498039, 0.498039, 1.0 ],
					"fontsize" : [ 9.0 ]
				}
,
				"parentstyle" : "",
				"multi" : 0
			}
, 			{
				"name" : "classicNslider",
				"default" : 				{
					"color" : [ 0.0, 0.0, 0.0, 1.0 ]
				}
,
				"parentstyle" : "",
				"multi" : 0
			}
, 			{
				"name" : "classicNumber",
				"default" : 				{
					"selectioncolor" : [ 1.0, 0.890196, 0.0, 1.0 ]
				}
,
				"parentstyle" : "",
				"multi" : 0
			}
, 			{
				"name" : "classicPictslider",
				"default" : 				{
					"elementcolor" : [ 0.498039, 0.498039, 0.498039, 1.0 ]
				}
,
				"parentstyle" : "",
				"multi" : 0
			}
, 			{
				"name" : "classicPreset",
				"default" : 				{
					"color" : [ 1.0, 0.890196, 0.090196, 1.0 ]
				}
,
				"parentstyle" : "",
				"multi" : 0
			}
, 			{
				"name" : "classicScope~",
				"default" : 				{
					"color" : [ 0.462745, 0.933333, 0.0, 1.0 ],
					"bgcolor" : [ 0.498039, 0.498039, 0.498039, 1.0 ]
				}
,
				"parentstyle" : "",
				"multi" : 0
			}
, 			{
				"name" : "classicTab",
				"default" : 				{
					"color" : [ 0.498039, 0.498039, 0.498039, 1.0 ],
					"elementcolor" : [ 0.839216, 0.839216, 0.839216, 1.0 ]
				}
,
				"parentstyle" : "",
				"multi" : 0
			}
, 			{
				"name" : "classicTextbutton",
				"default" : 				{
					"color" : [ 1.0, 1.0, 1.0, 1.0 ],
					"accentcolor" : [ 0.0, 0.0, 0.0, 1.0 ]
				}
,
				"parentstyle" : "",
				"multi" : 0
			}
, 			{
				"name" : "classicToggle",
				"default" : 				{
					"color" : [ 0.380392, 0.380392, 0.380392, 1.0 ],
					"elementcolor" : [ 0.376471, 0.384314, 0.4, 0.0 ]
				}
,
				"parentstyle" : "",
				"multi" : 0
			}
, 			{
				"name" : "classicUmenu",
				"default" : 				{
					"color" : [ 1.0, 1.0, 1.0, 1.0 ]
				}
,
				"parentstyle" : "",
				"multi" : 0
			}
, 			{
				"name" : "classicWaveform~",
				"default" : 				{
					"color" : [ 0.380392, 0.380392, 0.380392, 1.0 ],
					"selectioncolor" : [ 0.498039, 0.498039, 0.498039, 0.5 ]
				}
,
				"parentstyle" : "",
				"multi" : 0
			}
, 			{
				"name" : "dark-night-patch",
				"default" : 				{
					"patchlinecolor" : [ 0.439216, 0.74902, 0.254902, 0.898039 ],
					"bgfillcolor" : 					{
						"type" : "gradient",
						"color1" : [ 0.376471, 0.384314, 0.4, 1.0 ],
						"color2" : [ 0.290196, 0.309804, 0.301961, 1.0 ],
						"color" : [ 0.290196, 0.309804, 0.301961, 1.0 ],
						"angle" : 270.0,
						"proportion" : 0.39
					}
,
					"textcolor" : [ 0.862745, 0.870588, 0.878431, 1.0 ],
					"accentcolor" : [ 0.952941, 0.564706, 0.098039, 1.0 ]
				}
,
				"parentstyle" : "",
				"multi" : 0
			}
, 			{
				"name" : "jpatcher001",
				"parentstyle" : "",
				"multi" : 0
			}
, 			{
				"name" : "jpatcher002",
				"default" : 				{
					"fontname" : [ "Ableton Sans Book" ],
					"clearcolor" : [ 0.32549, 0.345098, 0.372549, 0.0 ],
					"patchlinecolor" : [ 0.65098, 0.65098, 0.65098, 0.0 ],
					"bgfillcolor" : 					{
						"type" : "color",
						"color1" : [ 0.32549, 0.345098, 0.372549, 0.0 ],
						"color2" : [ 0.290196, 0.309804, 0.301961, 1.0 ],
						"color" : [ 0.290196, 0.309804, 0.301961, 1.0 ],
						"angle" : 270.0,
						"proportion" : 0.39
					}
,
					"fontsize" : [ 9.5 ]
				}
,
				"parentstyle" : "",
				"multi" : 0
			}
, 			{
				"name" : "jpink",
				"default" : 				{
					"color" : [ 0.619608, 0.0, 0.360784, 1.0 ],
					"elementcolor" : [ 0.619608, 0.0, 0.360784, 1.0 ],
					"bgcolor" : [ 0.862745, 0.870588, 0.878431, 1.0 ],
					"selectioncolor" : [ 0.619608, 0.0, 0.360784, 1.0 ],
					"clearcolor" : [ 0.113725, 0.607843, 0.607843, 1.0 ],
					"patchlinecolor" : [ 0.65, 0.65, 0.65, 1.0 ],
					"bgfillcolor" : 					{
						"type" : "color",
						"color" : [ 0.619608, 0.0, 0.360784, 1.0 ],
						"color1" : [ 0.376471, 0.384314, 0.4, 1.0 ],
						"color2" : [ 0.290196, 0.309804, 0.301961, 1.0 ],
						"angle" : 270.0,
						"proportion" : 0.39,
						"autogradient" : 0
					}
,
					"textcolor" : [ 0.619608, 0.0, 0.360784, 1.0 ],
					"accentcolor" : [ 0.619608, 0.0, 0.360784, 1.0 ]
				}
,
				"parentstyle" : "",
				"multi" : 0
			}
, 			{
				"name" : "ksliderWhite",
				"default" : 				{
					"color" : [ 1.0, 1.0, 1.0, 1.0 ]
				}
,
				"parentstyle" : "",
				"multi" : 0
			}
, 			{
				"name" : "lightbutton",
				"default" : 				{
					"elementcolor" : [ 0.654902, 0.572549, 0.376471, 1.0 ],
					"bgcolor" : [ 0.309495, 0.299387, 0.299789, 1.0 ]
				}
,
				"parentstyle" : "",
				"multi" : 0
			}
, 			{
				"name" : "newobjBlue-1",
				"default" : 				{
					"accentcolor" : [ 0.317647, 0.654902, 0.976471, 1.0 ]
				}
,
				"parentstyle" : "",
				"multi" : 0
			}
, 			{
				"name" : "newobjBrown-1",
				"default" : 				{
					"accentcolor" : [ 0.654902, 0.572549, 0.376471, 1.0 ]
				}
,
				"parentstyle" : "",
				"multi" : 0
			}
, 			{
				"name" : "newobjCyan-1",
				"default" : 				{
					"accentcolor" : [ 0.029546, 0.773327, 0.821113, 1.0 ]
				}
,
				"parentstyle" : "",
				"multi" : 0
			}
, 			{
				"name" : "newobjGreen-1",
				"default" : 				{
					"accentcolor" : [ 0.0, 0.533333, 0.168627, 1.0 ]
				}
,
				"parentstyle" : "",
				"multi" : 0
			}
, 			{
				"name" : "newobjRed-1",
				"default" : 				{
					"accentcolor" : [ 0.784314, 0.145098, 0.023529, 1.0 ]
				}
,
				"parentstyle" : "",
				"multi" : 0
			}
, 			{
				"name" : "newobjYellow-1",
				"default" : 				{
					"fontsize" : [ 12.059008 ],
					"accentcolor" : [ 0.82517, 0.78181, 0.059545, 1.0 ]
				}
,
				"parentstyle" : "",
				"multi" : 0
			}
, 			{
				"name" : "newobjYellow-2",
				"default" : 				{
					"fontsize" : [ 12.059008 ],
					"accentcolor" : [ 0.82517, 0.78181, 0.059545, 1.0 ]
				}
,
				"parentstyle" : "",
				"multi" : 0
			}
, 			{
				"name" : "numberGold-1",
				"default" : 				{
					"accentcolor" : [ 0.764706, 0.592157, 0.101961, 1.0 ]
				}
,
				"parentstyle" : "",
				"multi" : 0
			}
, 			{
				"name" : "purple",
				"default" : 				{
					"bgcolor" : [ 0.304029, 0.250694, 0.285628, 1.0 ],
					"textcolor_inverse" : [ 0.701961, 0.415686, 0.886275, 1.0 ]
				}
,
				"parentstyle" : "",
				"multi" : 0
			}
, 			{
				"name" : "receives",
				"default" : 				{
					"accentcolor" : [ 0.870588, 0.415686, 0.062745, 1.0 ]
				}
,
				"parentstyle" : "",
				"multi" : 0
			}
, 			{
				"name" : "rsliderGold",
				"default" : 				{
					"color" : [ 0.646639, 0.821777, 0.854593, 1.0 ],
					"bgcolor" : [ 0.764706, 0.592157, 0.101961, 1.0 ]
				}
,
				"parentstyle" : "",
				"multi" : 0
			}
, 			{
				"name" : "sends",
				"default" : 				{
					"accentcolor" : [ 0.0, 0.533333, 0.168627, 1.0 ]
				}
,
				"parentstyle" : "",
				"multi" : 0
			}
, 			{
				"name" : "tap",
				"default" : 				{
					"fontname" : [ "Lato Light" ]
				}
,
				"parentstyle" : "",
				"multi" : 0
			}
, 			{
				"name" : "tastefulltoggle",
				"default" : 				{
					"color" : [ 0.941176, 0.690196, 0.196078, 1.0 ],
					"bgcolor" : [ 0.185512, 0.263736, 0.260626, 1.0 ]
				}
,
				"parentstyle" : "",
				"multi" : 0
			}
, 			{
				"name" : "tastefultoggle",
				"default" : 				{
					"color" : [ 0.941176, 0.690196, 0.196078, 1.0 ],
					"elementcolor" : [ 0.654902, 0.572549, 0.376471, 1.0 ],
					"bgcolor" : [ 0.287863, 0.333333, 0.329398, 1.0 ]
				}
,
				"parentstyle" : "",
				"multi" : 0
			}
, 			{
				"name" : "test",
				"default" : 				{
					"fontface" : [ 1 ],
					"fontsize" : [ 10.0 ]
				}
,
				"parentstyle" : "",
				"multi" : 0
			}
, 			{
				"name" : "texteditGold",
				"default" : 				{
					"bgcolor" : [ 0.764706, 0.592157, 0.101961, 0.68 ],
					"textcolor_inverse" : [ 0.0, 0.0, 0.0, 1.0 ]
				}
,
				"parentstyle" : "",
				"multi" : 0
			}
, 			{
				"name" : "whitey",
				"default" : 				{
					"fontname" : [ "Dirty Ego" ],
					"selectioncolor" : [ 0.011765, 0.396078, 0.752941, 1.0 ],
					"textcolor_inverse" : [ 0.65098, 0.666667, 0.662745, 1.0 ],
					"patchlinecolor" : [ 0.199068, 0.062496, 0.060031, 0.9 ],
					"fontsize" : [ 36.0 ]
				}
,
				"parentstyle" : "",
				"multi" : 0
			}
 ]
	}

}
